<svg width="60" height="41" viewBox="0 0 60 41" fill="none" xmlns="http://www.w3.org/2000/svg">
<path fill-rule="evenodd" clip-rule="evenodd" d="M19.6269 19.3403C19.5731 19.2488 19.6046 17.6748 19.6046 17.4297V7.67962C19.6046 7.39938 19.5842 7.03074 19.6774 6.79441C19.7944 6.4978 19.9314 6.26757 20.1816 6.07737C20.3322 5.96278 20.4724 5.88985 20.6601 5.82273C20.9226 5.72882 21.268 5.75933 21.5683 5.75933H35.2156C35.8418 5.75933 36.2442 5.71156 36.7473 6.17679C36.7703 6.19807 36.7834 6.21503 36.8026 6.23676C37.2117 6.69678 37.2071 7.06631 37.207 7.66533V13.5182C37.2071 13.9904 37.2647 15.5292 37.1431 15.8898C37.0979 16.0238 37.0552 16.1108 36.9893 16.226C36.8662 16.4408 36.7068 16.5823 36.5099 16.725C36.0685 17.0449 35.3297 16.9599 34.7986 16.9599C34.1466 16.9599 33.4947 16.9599 32.8427 16.9599H23.5959C23.1536 16.9594 22.6128 17.0955 22.28 17.3511L21.5801 17.8731C21.3098 18.0966 20.7776 18.4775 20.467 18.7156L19.6269 19.3405V19.3403ZM35.4025 18.547C35.6143 18.547 35.8461 18.5663 36.0462 18.5334C36.2142 18.5057 36.4225 18.4798 36.58 18.42C36.7507 18.3551 36.8854 18.3142 37.0463 18.2398C37.5549 18.0049 38.0398 17.5591 38.3299 17.0782L38.5003 16.76C38.6101 16.5177 38.5928 16.5475 38.6805 16.2937C38.757 16.0718 38.7964 15.6569 38.7964 15.4309V7.63661C38.7961 7.18403 38.7987 6.85796 38.6902 6.44943C38.6698 6.37279 38.6256 6.27635 38.603 6.20551C38.5713 6.10639 38.5461 6.05058 38.5074 5.96962C38.4366 5.82139 38.3611 5.67808 38.2775 5.55306C38.1645 5.38429 38.1163 5.33667 37.9925 5.19023C37.8841 5.06224 37.8603 5.042 37.7465 4.94735C37.4854 4.73051 37.3954 4.65982 37.0705 4.48658C36.7446 4.31276 36.1758 4.16602 35.7763 4.16602H21.0361C20.6486 4.16602 20.2417 4.27987 19.932 4.40458C19.6781 4.50682 19.2889 4.73334 19.102 4.91118C19.0798 4.93231 19.0775 4.93589 19.0574 4.95315L19.026 4.97919C18.8682 5.11596 18.8594 5.15719 18.7624 5.24842L18.4844 5.63149C18.3432 5.87184 18.1905 6.17857 18.1219 6.44809C17.9971 6.93743 18.0146 7.30815 18.015 7.83767V18.5081C18.0146 19.1324 17.9427 19.5767 18.1175 20.0889C18.1367 20.1452 18.1954 20.2586 18.2268 20.3107C18.4046 20.6052 18.6292 20.7872 18.9334 20.9274C19.3223 21.1067 19.8567 21.0753 20.2175 20.8671C20.4401 20.7387 20.9321 20.3571 21.1555 20.1807C21.4058 19.9831 21.8493 19.6776 22.0836 19.4835L23.0099 18.7848C23.1892 18.6629 23.2632 18.5467 23.5815 18.5467H35.4023L35.4025 18.547Z" fill="#828282"/>
<path fill-rule="evenodd" clip-rule="evenodd" d="M22.6969 0.974706C22.1786 1.06236 21.8088 1.62537 22.1292 2.16992C22.2227 2.32871 22.4689 2.54079 22.7335 2.55254C23.0566 2.56683 23.4133 2.55314 23.74 2.55314L38.7247 2.55939C38.8996 2.55939 39.0362 2.54674 39.1959 2.58856C39.5853 2.6905 39.8666 2.82311 40.1089 3.17344C40.502 3.74165 40.4057 4.18917 40.4058 4.87332V11.8767C40.4058 12.2503 40.4009 12.448 40.6009 12.6754C40.7518 12.8469 41.0045 12.9846 41.3171 12.945C41.4939 12.9225 41.6784 12.8101 41.7896 12.6838C42.0555 12.3817 41.9939 12.0736 41.9939 11.6323V4.64338C41.9939 3.92114 42.0247 3.54312 41.7558 2.87832C41.7067 2.75658 41.6555 2.65241 41.59 2.54064L41.288 2.09431C41.2516 2.04654 41.2052 2.00919 41.17 1.96811C40.9004 1.65275 40.3646 1.28069 39.9763 1.16193C39.9352 1.14943 39.9302 1.14571 39.8931 1.13053C39.8531 1.11415 39.833 1.11401 39.7931 1.10121C39.713 1.07546 39.6696 1.06802 39.5883 1.04659C39.3044 0.971729 38.9908 0.965032 38.6672 0.965032H23.6825C23.4274 0.965032 22.9162 0.937648 22.6969 0.974855V0.974706Z" fill="#828282"/>
<path fill-rule="evenodd" clip-rule="evenodd" d="M28.3433 10.651C28.1253 10.6836 27.9659 10.7647 27.831 10.9353C27.6411 11.175 27.5856 11.5407 27.7748 11.8397C28.0555 12.2835 28.6697 12.3805 29.0754 11.9209C29.2877 11.6804 29.3031 11.327 29.135 11.0268C28.991 10.7693 28.6804 10.6006 28.3433 10.651Z" fill="#828282"/>
<path fill-rule="evenodd" clip-rule="evenodd" d="M25.1471 10.6477C24.9341 10.6797 24.7558 10.7696 24.6351 10.9303C24.371 11.2819 24.3978 11.7538 24.7573 12.0373C25.1191 12.3226 25.6247 12.2605 25.8693 11.92C25.9266 11.8403 25.9811 11.7886 26.0073 11.6697C26.0561 11.4474 26.0953 11.3131 25.9452 11.036C25.796 10.7602 25.4809 10.5974 25.1471 10.6476V10.6477Z" fill="#828282"/>
<path fill-rule="evenodd" clip-rule="evenodd" d="M31.4462 10.6471C31.1912 10.6842 31.0488 10.7869 30.9388 10.9349C30.7314 11.2144 30.6983 11.4972 30.8678 11.8225C30.9489 11.9782 31.14 12.1233 31.3124 12.1837C31.8847 12.3842 32.6378 11.7608 32.2445 11.0357C32.1041 10.777 31.795 10.5964 31.4462 10.6471Z" fill="#828282"/>
<path d="M7.26562 34.3376C7.16016 35.24 6.82617 35.9373 6.26367 36.4294C5.70508 36.9177 4.96094 37.1619 4.03125 37.1619C3.02344 37.1619 2.21484 36.8005 1.60547 36.0779C1 35.3552 0.697266 34.3884 0.697266 33.1775V32.3572C0.697266 31.5642 0.837891 30.8669 1.11914 30.2654C1.4043 29.6638 1.80664 29.2029 2.32617 28.8826C2.8457 28.5583 3.44727 28.3962 4.13086 28.3962C5.03711 28.3962 5.76367 28.6501 6.31055 29.158C6.85742 29.6619 7.17578 30.3611 7.26562 31.2556H6.13477C6.03711 30.5759 5.82422 30.0837 5.49609 29.7791C5.17188 29.4744 4.7168 29.322 4.13086 29.322C3.41211 29.322 2.84766 29.5876 2.4375 30.1189C2.03125 30.6501 1.82812 31.406 1.82812 32.3865V33.2126C1.82812 34.1384 2.02148 34.8748 2.4082 35.4216C2.79492 35.9685 3.33594 36.2419 4.03125 36.2419C4.65625 36.2419 5.13477 36.1013 5.4668 35.8201C5.80273 35.5349 6.02539 35.0408 6.13477 34.3376H7.26562ZM8.10961 33.8162C8.10961 33.1951 8.2307 32.6365 8.47289 32.1404C8.71898 31.6443 9.05883 31.2615 9.49242 30.9919C9.92992 30.7224 10.428 30.5876 10.9866 30.5876C11.8498 30.5876 12.5471 30.8865 13.0784 31.4841C13.6135 32.0818 13.8811 32.8767 13.8811 33.8689V33.9451C13.8811 34.5623 13.762 35.1169 13.5237 35.6091C13.2893 36.0974 12.9514 36.4783 12.51 36.7517C12.0725 37.0251 11.5686 37.1619 10.9983 37.1619C10.1389 37.1619 9.44164 36.863 8.90648 36.2654C8.37523 35.6677 8.10961 34.8767 8.10961 33.8923V33.8162ZM9.19945 33.9451C9.19945 34.6482 9.36156 35.2126 9.68578 35.6384C10.0139 36.0642 10.4514 36.2771 10.9983 36.2771C11.5491 36.2771 11.9866 36.0623 12.3108 35.6326C12.635 35.199 12.7971 34.5935 12.7971 33.8162C12.7971 33.1208 12.6311 32.5583 12.2991 32.1287C11.9709 31.6951 11.5334 31.4783 10.9866 31.4783C10.4514 31.4783 10.0198 31.6912 9.69164 32.1169C9.36352 32.5427 9.19945 33.1521 9.19945 33.9451ZM16.02 30.7048L16.0493 31.408C16.5141 30.8611 17.1411 30.5876 17.9302 30.5876C18.8169 30.5876 19.4204 30.9275 19.7407 31.6072C19.9516 31.3025 20.2251 31.0564 20.561 30.8689C20.9009 30.6814 21.3013 30.5876 21.7622 30.5876C23.1528 30.5876 23.8598 31.324 23.8833 32.7966V37.0447H22.7993V32.8611C22.7993 32.408 22.6958 32.0701 22.4888 31.8474C22.2817 31.6208 21.9341 31.5076 21.4458 31.5076C21.0434 31.5076 20.7095 31.6287 20.4438 31.8708C20.1782 32.1091 20.0239 32.4314 19.9809 32.8376V37.0447H18.8911V32.8904C18.8911 31.9685 18.4399 31.5076 17.5376 31.5076C16.8266 31.5076 16.3403 31.8103 16.0786 32.4158V37.0447H14.9946V30.7048H16.02ZM26.3034 30.7048L26.3327 31.408C26.7976 30.8611 27.4245 30.5876 28.2136 30.5876C29.1003 30.5876 29.7038 30.9275 30.0241 31.6072C30.2351 31.3025 30.5085 31.0564 30.8445 30.8689C31.1843 30.6814 31.5847 30.5876 32.0456 30.5876C33.4363 30.5876 34.1433 31.324 34.1667 32.7966V37.0447H33.0827V32.8611C33.0827 32.408 32.9792 32.0701 32.7722 31.8474C32.5652 31.6208 32.2175 31.5076 31.7292 31.5076C31.3269 31.5076 30.9929 31.6287 30.7273 31.8708C30.4616 32.1091 30.3073 32.4314 30.2644 32.8376V37.0447H29.1745V32.8904C29.1745 31.9685 28.7234 31.5076 27.821 31.5076C27.1101 31.5076 26.6238 31.8103 26.362 32.4158V37.0447H25.278V30.7048H26.3034ZM39.4814 36.4177C39.0595 36.9138 38.4404 37.1619 37.624 37.1619C36.9482 37.1619 36.4326 36.9666 36.0771 36.5759C35.7255 36.1814 35.5478 35.5994 35.5439 34.8298V30.7048H36.6279V34.8005C36.6279 35.7615 37.0185 36.2419 37.7998 36.2419C38.6279 36.2419 39.1787 35.9333 39.4521 35.3162V30.7048H40.5361V37.0447H39.5048L39.4814 36.4177ZM42.9738 30.7048L43.009 31.5017C43.4934 30.8923 44.1262 30.5876 44.9074 30.5876C46.2473 30.5876 46.923 31.3435 46.9348 32.8552V37.0447H45.8508V32.8494C45.8469 32.3923 45.7414 32.0544 45.5344 31.8357C45.3312 31.6169 45.0129 31.5076 44.5793 31.5076C44.2277 31.5076 43.9191 31.6013 43.6535 31.7888C43.3879 31.9763 43.1809 32.2224 43.0324 32.5271V37.0447H41.9484V30.7048H42.9738ZM49.5073 37.0447H48.4233V30.7048H49.5073V37.0447ZM48.3354 29.0232C48.3354 28.8474 48.3881 28.699 48.4936 28.5779C48.603 28.4568 48.7631 28.3962 48.9741 28.3962C49.185 28.3962 49.3452 28.4568 49.4545 28.5779C49.5639 28.699 49.6186 28.8474 49.6186 29.0232C49.6186 29.199 49.5639 29.3455 49.4545 29.4626C49.3452 29.5798 49.185 29.6384 48.9741 29.6384C48.7631 29.6384 48.603 29.5798 48.4936 29.4626C48.3881 29.3455 48.3354 29.199 48.3354 29.0232ZM52.4782 29.1697V30.7048H53.6618V31.5427H52.4782V35.4744C52.4782 35.7283 52.5309 35.9197 52.6364 36.0486C52.7419 36.1736 52.9216 36.2361 53.1755 36.2361C53.3005 36.2361 53.4723 36.2126 53.6911 36.1658V37.0447C53.4059 37.1228 53.1286 37.1619 52.8591 37.1619C52.3747 37.1619 52.0095 37.0154 51.7634 36.7224C51.5173 36.4294 51.3942 36.0134 51.3942 35.4744V31.5427H50.2399V30.7048H51.3942V29.1697H52.4782ZM56.7675 35.4568L58.2441 30.7048H59.4042L56.8554 38.0232C56.4609 39.0779 55.8339 39.6052 54.9745 39.6052L54.7695 39.5876L54.3652 39.5115V38.6326L54.6581 38.656C55.0253 38.656 55.3105 38.5818 55.5136 38.4333C55.7206 38.2849 55.8905 38.0134 56.0234 37.6189L56.2636 36.9744L54.0019 30.7048H55.1855L56.7675 35.4568Z" fill="#828282"/>
</svg>
