<svg width="41" height="43" viewBox="0 0 41 43" fill="none" xmlns="http://www.w3.org/2000/svg">
<path fill-rule="evenodd" clip-rule="evenodd" d="M10.0945 22.0673C10.0723 21.7214 10.1472 21.2605 10.2036 20.9067C10.2135 20.8451 10.2355 20.804 10.2449 20.7417C10.2664 20.5981 10.3344 20.3677 10.3827 20.2375C10.3934 20.2087 10.3945 20.1847 10.4033 20.1555C10.4138 20.1213 10.4243 20.1129 10.4347 20.0838C10.4438 20.0581 10.4464 20.0299 10.4568 20.0021C10.4709 19.9644 10.4784 19.9637 10.4911 19.9225C10.5107 19.8601 10.5281 19.836 10.548 19.7725C10.6076 19.5832 10.8741 19.0762 10.9794 18.9211C10.9944 18.8989 11.0091 18.8776 11.0213 18.8599C11.124 18.7103 11.2103 18.5534 11.3226 18.4167C11.4454 18.267 11.5669 18.0874 11.7084 17.9547C11.7796 17.8879 11.8466 17.8061 11.9212 17.7432C11.9616 17.7091 11.9911 17.6754 12.0318 17.6363L12.7393 17.0606L13.3996 16.6673C13.4272 16.6517 13.4441 16.6515 13.4728 16.6368L13.9857 16.4053C14.1325 16.3523 14.325 16.276 14.4777 16.2441C14.5781 16.223 14.7005 16.1681 14.8096 16.1525C14.8812 16.1423 14.9144 16.1259 14.9782 16.1124C15.0435 16.0986 15.1063 16.1013 15.168 16.0863C15.3455 16.0433 15.748 16.0035 15.9356 16.0038C16.4913 16.0047 17.0665 15.9969 17.6311 15.9969C19.8997 15.9969 22.1671 15.9969 24.436 15.9969C24.7091 15.9969 25.0071 15.9893 25.2649 16.0119C25.4264 16.0261 25.6672 16.0471 25.8234 16.0854C25.8843 16.1004 25.9489 16.0972 26.0154 16.1109C26.0741 16.1229 26.1122 16.1415 26.1819 16.1514C26.2598 16.1625 26.2859 16.181 26.3577 16.1951C26.4804 16.2193 26.5718 16.2547 26.6837 16.2909C26.8872 16.3568 27.1263 16.4287 27.3061 16.5275L27.595 16.6616C27.6406 16.6855 27.6926 16.7147 27.728 16.7353C27.8636 16.8138 28.0083 16.8854 28.1322 16.9733L28.3868 17.1533C28.5073 17.2312 28.6362 17.3387 28.744 17.4267C28.8582 17.5199 28.9665 17.6357 29.0771 17.7355C29.1002 17.7564 29.1092 17.7652 29.1301 17.7853L29.2921 17.9554C29.3322 17.9945 29.3519 18.0239 29.3903 18.0634C29.4281 18.1023 29.4633 18.1397 29.4946 18.1769C29.531 18.22 29.5494 18.2524 29.5831 18.2943C29.7249 18.4707 29.9958 18.8421 30.0991 19.0501C30.1232 19.0987 30.1465 19.139 30.1776 19.1888C30.2398 19.288 30.3675 19.5538 30.4145 19.6861L30.5101 19.9224C30.5201 19.9524 30.5324 19.9703 30.5417 19.9937C30.5519 20.02 30.5567 20.0561 30.5661 20.0841C30.5753 20.1115 30.589 20.1309 30.5974 20.1564L30.7133 20.5658C30.7359 20.6685 30.7807 20.8002 30.7984 20.9068C30.8091 20.9711 30.8089 21.0284 30.8268 21.0957C30.8718 21.2652 30.9175 21.8692 30.9094 22.0675C30.9052 22.1715 30.8969 22.1646 30.8616 22.2374C30.8224 22.3184 30.7714 22.3452 30.699 22.3844C30.5981 22.4392 30.2988 22.4097 30.1753 22.4097C27.9067 22.4097 25.6392 22.4094 23.3705 22.4097H10.6085C10.5419 22.4097 10.4713 22.4113 10.4089 22.4063C10.3071 22.3982 10.2527 22.3613 10.1912 22.3013C10.1281 22.2397 10.1012 22.1696 10.0948 22.0672L10.0945 22.0673ZM10.3677 24H30.6676C30.9088 24 31.1793 23.917 31.386 23.817C31.4461 23.7879 31.4815 23.7757 31.5393 23.7409C31.5881 23.7115 31.6335 23.6864 31.6789 23.6516C31.7219 23.6185 31.7647 23.5818 31.8072 23.5511C31.8963 23.487 31.9671 23.4053 32.0405 23.3256C32.1336 23.2247 32.302 22.9596 32.3461 22.8299C32.4368 22.5643 32.4985 22.3781 32.4985 22.0789C32.4985 21.8216 32.4729 21.4015 32.4418 21.1401C32.4299 21.041 32.4089 20.9499 32.3984 20.8415C32.3934 20.7907 32.3843 20.7589 32.37 20.708C32.3549 20.6543 32.3555 20.6172 32.3481 20.558C32.3415 20.5038 32.3248 20.4743 32.3112 20.4208C32.2998 20.3759 32.2998 20.3258 32.285 20.2771C32.269 20.2241 32.2616 20.2145 32.2523 20.1524L32.1388 19.7482C32.1151 19.6785 32.0684 19.5783 32.0511 19.5027C32.0273 19.3988 31.9543 19.2484 31.9133 19.1493L31.8635 19.0267C31.8462 18.99 31.821 18.9369 31.8099 18.9088L31.7558 18.7894C31.7228 18.7126 31.6828 18.6477 31.647 18.5675C31.5702 18.3964 31.3776 18.0777 31.2716 17.9233L31.1404 17.7221C31.0461 17.5771 30.8181 17.2828 30.705 17.1497C30.6741 17.1132 30.6631 17.0991 30.6295 17.0651C30.5935 17.0285 30.581 17.006 30.5489 16.9736L30.3815 16.797C30.3228 16.7418 30.2786 16.6847 30.2195 16.6272L29.6819 16.1451C29.6182 16.1005 29.5637 16.0468 29.4994 15.9956L29.205 15.7852C28.9999 15.6374 28.7962 15.517 28.5808 15.3904C28.5414 15.3673 28.5061 15.3538 28.4692 15.3308L28.3099 15.2485C28.2192 15.2047 28.1227 15.1418 28.0275 15.1083C27.9032 15.0644 27.799 14.9913 27.6744 14.9569L26.793 14.6594L26.5086 14.5992C26.4592 14.5903 26.4278 14.5729 26.3808 14.5639C26.3292 14.5538 26.2808 14.5523 26.2326 14.5412C26.0893 14.508 25.7955 14.4653 25.6461 14.4541C25.5357 14.4459 25.4369 14.4367 25.3341 14.4241C25.0392 14.3878 24.3346 14.4084 24 14.4084C22.2014 14.4084 20.4028 14.4085 18.6041 14.4084C17.7176 14.4084 16.8019 14.39 15.9235 14.4127C15.705 14.4183 15.5147 14.4444 15.3042 14.4585C15.1883 14.4663 15.1201 14.4903 15.0075 14.5005L14.5813 14.5728C14.5263 14.5897 14.5015 14.5992 14.4428 14.6073C14.3795 14.6158 14.36 14.6258 14.3067 14.642L14.0418 14.7086C13.9831 14.7206 13.9684 14.7385 13.9129 14.7516L13.4092 14.9247C13.3578 14.9506 13.3433 14.946 13.2913 14.9663C13.2628 14.9774 13.2619 14.9832 13.238 14.9936L12.8236 15.1749C12.787 15.1952 12.7501 15.2198 12.7146 15.2382L12.3846 15.412C12.2202 15.5105 12.0071 15.6257 11.8604 15.7355L11.5227 15.9821C11.3781 16.1001 11.2375 16.199 11.1017 16.3284C10.9288 16.4931 10.7503 16.6518 10.5926 16.8276C10.5354 16.8913 10.488 16.9405 10.4251 17.004L10.0542 17.4577C10.0409 17.4758 10.0302 17.4884 10.0196 17.5032C9.8897 17.6828 9.75293 17.8682 9.63927 18.062C9.55775 18.2011 9.46061 18.3509 9.39546 18.495L9.2258 18.8291C9.13167 18.9938 9.03408 19.3136 8.97478 19.4251C8.94265 19.4856 8.91547 19.606 8.89445 19.6767L8.80783 19.9327C8.79146 19.9995 8.79386 20.0102 8.77044 20.069C8.73952 20.1467 8.60514 20.8265 8.59749 20.906C8.58788 21.0059 8.56266 21.0882 8.55485 21.1964C8.53233 21.5075 8.49194 21.8256 8.5035 22.1469C8.50801 22.2687 8.53008 22.337 8.54524 22.4461C8.5577 22.5356 8.58112 22.6279 8.61175 22.7126C8.70724 22.9764 8.87629 23.2461 9.06831 23.4357C9.10044 23.4674 9.12161 23.4851 9.15599 23.5197C9.30447 23.6696 9.59288 23.829 9.79992 23.8954C9.95216 23.9442 10.1843 23.9999 10.3679 23.9999L10.3677 24Z" fill="#828282"/>
<path fill-rule="evenodd" clip-rule="evenodd" d="M20.178 1.60576C20.3633 1.58819 20.5773 1.5987 20.7701 1.60095L21.3034 1.65801C21.3541 1.66686 21.3767 1.68263 21.431 1.69089C21.5932 1.71566 21.755 1.7652 21.9135 1.80454C21.9569 1.81535 21.9763 1.83231 22.0212 1.84432C22.1692 1.88396 22.4326 1.98635 22.5647 2.05782C22.7234 2.14369 22.8918 2.21756 23.0451 2.32175C23.2271 2.44546 23.405 2.55882 23.5716 2.69994C23.6237 2.74408 23.6749 2.79062 23.7297 2.84032C23.8449 2.94496 23.9272 3.0385 24.0338 3.14374C24.1434 3.25214 24.2295 3.37795 24.3265 3.49236L24.4375 3.64459C24.5535 3.78947 24.6238 3.94892 24.7247 4.10311L24.8759 4.40953C24.893 4.44181 24.8859 4.41674 24.9027 4.46448C24.9337 4.55171 24.9781 4.63113 25.0065 4.72556C25.0212 4.77421 25.0364 4.79132 25.0488 4.83246L25.2308 5.54425C25.258 5.64109 25.2518 5.70805 25.2659 5.80594C25.3153 6.149 25.3036 6.31039 25.3013 6.659L25.2417 7.20054C25.2098 7.34692 25.1766 7.55846 25.1263 7.69283C25.1087 7.73998 25.1092 7.76655 25.0975 7.81279L24.8904 8.36078C24.7945 8.55836 24.6978 8.75609 24.5769 8.94211L24.4556 9.13008C24.4146 9.18548 24.3722 9.24493 24.3307 9.30273C24.1698 9.52688 24.0895 9.57778 23.9599 9.73422C23.9429 9.75464 23.9627 9.73257 23.9444 9.75314L23.8374 9.86304C23.8104 9.88721 23.7824 9.90778 23.7572 9.9321C23.5841 10.0992 23.2613 10.3534 23.0793 10.4565C23.0409 10.4783 23.0256 10.4898 22.9863 10.513C22.6927 10.6855 22.388 10.8298 22.0676 10.9458L21.7244 11.0485C21.6795 11.0592 21.6436 11.0617 21.6013 11.0757C21.4661 11.1201 21.24 11.145 21.0932 11.1623C21.0001 11.1733 20.933 11.1931 20.8279 11.198C20.5457 11.2111 20.2511 11.2112 19.9684 11.1728C19.8842 11.1614 19.7798 11.158 19.7016 11.1419C19.6542 11.1321 19.6214 11.12 19.571 11.1122C19.4635 11.0953 19.3022 11.0689 19.2077 11.0296C19.065 10.9704 18.8978 10.9412 18.7643 10.8758C18.7253 10.8568 18.682 10.8517 18.6459 10.834L18.0521 10.5349L17.4335 10.0989C17.3434 10.0402 17.2687 9.95252 17.1914 9.88285C17.0552 9.76049 16.9468 9.63213 16.831 9.49851C16.6752 9.31865 16.5842 9.16581 16.4485 8.97709C16.3827 8.88566 16.3443 8.79738 16.2805 8.69724C16.2203 8.60295 16.1862 8.48795 16.1285 8.39081C16.1027 8.34742 16.1033 8.33376 16.0843 8.28632C16.0703 8.25149 16.0587 8.23047 16.0407 8.17927L15.7745 7.25519C15.6826 6.91874 15.6986 6.4835 15.7028 6.14359C15.7041 6.03369 15.7094 5.96988 15.7293 5.86569C15.7466 5.77501 15.7422 5.68913 15.7588 5.59905C15.7681 5.54831 15.7823 5.52413 15.7918 5.46843C15.799 5.4261 15.8016 5.38135 15.8121 5.34217L15.9056 4.98905C15.9151 4.94716 15.9344 4.92359 15.9454 4.88141L15.9867 4.77316C16.0287 4.66776 16.061 4.54525 16.1131 4.44211L16.2386 4.18868C16.2461 4.17397 16.2496 4.15941 16.2593 4.14124L16.4911 3.76455C16.5135 3.73017 16.5229 3.7078 16.5464 3.67192L16.706 3.45347C16.8394 3.24718 17.2224 2.89016 17.4041 2.73132C17.5481 2.60551 17.7625 2.43916 17.9257 2.34773L18.3045 2.13093C18.4894 2.02494 18.7256 1.93035 18.9355 1.85633L19.2794 1.75229C19.3288 1.74208 19.3497 1.74193 19.3982 1.72407C19.5216 1.67842 20.0196 1.62062 20.1789 1.60561L20.178 1.60576ZM20.2516 0.0099736C20.131 0.0227351 20.0544 0.0185313 19.8896 0.0395502C19.766 0.0553144 19.6533 0.0535128 19.5303 0.0814379C19.4716 0.0947999 19.4177 0.0991538 19.3604 0.10606L19.0289 0.174972C18.9664 0.196742 18.9173 0.197943 18.8622 0.214908C18.7583 0.246586 18.6561 0.281718 18.5522 0.307091C18.4989 0.320153 18.4705 0.338769 18.4068 0.354984L18.256 0.410234C18.2252 0.421344 18.2183 0.429751 18.1934 0.44011C18.1653 0.451821 18.1398 0.454523 18.115 0.465333L17.5665 0.71771C17.3092 0.852982 17.0621 1.00387 16.8237 1.16631C16.7325 1.22832 16.5133 1.39092 16.4279 1.46944L16.2628 1.61372C16.1089 1.75004 15.9957 1.87855 15.8582 2.01082L15.4035 2.5411C15.2557 2.73492 15.131 2.93746 14.9971 3.14389L14.7176 3.66516C14.6749 3.75389 14.6361 3.85058 14.599 3.94696C14.5721 4.01693 14.5335 4.08088 14.5096 4.15655C14.5002 4.18673 14.4976 4.2091 14.4856 4.23567C14.4242 4.372 14.3248 4.71476 14.2978 4.85228C14.2864 4.91083 14.266 4.94281 14.2564 5.00241C14.2434 5.08289 14.2428 5.09805 14.2208 5.17492L14.1643 5.51693C14.1179 5.82035 14.0798 6.35873 14.1086 6.653C14.1146 6.7144 14.1103 6.77701 14.117 6.83947C14.1336 6.9911 14.1514 7.24558 14.1823 7.37034C14.1962 7.42634 14.1992 7.47739 14.2064 7.53955C14.2146 7.61071 14.2314 7.63984 14.2454 7.70845C14.267 7.81429 14.2831 7.9293 14.3161 8.03874L14.4081 8.34787C14.4292 8.43886 14.4811 8.55401 14.5092 8.64709L14.5632 8.78792C14.5728 8.81344 14.6105 8.89527 14.6285 8.9286C14.6616 8.9897 14.6838 9.07648 14.7168 9.13773C14.7749 9.24508 14.8212 9.36008 14.8862 9.46127L15.106 9.83736C15.2807 10.1322 15.6703 10.6167 15.9078 10.8454L16.4141 11.324C16.5573 11.4435 16.7159 11.5666 16.8756 11.665C17.0606 11.7786 17.2903 11.957 17.5 12.0492C17.5305 12.0625 17.5346 12.0672 17.5589 12.0813L17.8998 12.2445C17.9623 12.27 17.9836 12.2834 18.0461 12.3027C18.1088 12.3222 18.1875 12.3709 18.256 12.3918C18.2891 12.402 18.3051 12.403 18.3349 12.4162C18.4547 12.4695 18.8172 12.5802 18.9497 12.6027C19.0167 12.614 19.0433 12.6347 19.1 12.6446C19.176 12.6579 19.2014 12.6573 19.2748 12.6796L19.6138 12.7398C19.7367 12.7563 19.8583 12.7567 19.978 12.7769C20.1944 12.813 20.5213 12.7979 20.747 12.7931C20.898 12.7898 21.3385 12.7531 21.4708 12.7221C21.5297 12.7082 21.584 12.7018 21.64 12.6956C21.7124 12.6877 21.7433 12.6715 21.8086 12.6581C21.9068 12.6378 22.0448 12.6173 22.1386 12.5883C22.3685 12.5176 22.6016 12.4532 22.8076 12.3634C22.9204 12.3143 23.0336 12.2861 23.1642 12.2158L23.3645 12.1178C23.3879 12.1049 23.4113 12.1 23.4358 12.0865L23.9357 11.7963C23.9802 11.7694 24.0181 11.742 24.0608 11.7145C24.2396 11.5993 24.366 11.4831 24.5209 11.3734C24.6163 11.3057 24.9667 10.9907 25.0449 10.9003C25.0808 10.8587 25.1057 10.8325 25.1445 10.7937L25.6866 10.1439C25.8504 9.90672 26.0194 9.66441 26.1471 9.40257C26.1642 9.36729 26.1682 9.36744 26.1817 9.34492C26.1978 9.31805 26.1975 9.30393 26.2149 9.27496C26.2359 9.24043 26.2325 9.25529 26.2503 9.20649L26.3089 9.07288C26.3271 9.03474 26.328 9.04975 26.3442 9.00276C26.3661 8.93895 26.3825 8.91929 26.405 8.85893L26.5656 8.42489C26.59 8.36799 26.5936 8.32715 26.6168 8.26785C26.629 8.23662 26.6326 8.23903 26.6417 8.20014C26.6488 8.17026 26.6517 8.13783 26.6584 8.11426C26.6781 8.0464 26.689 8.03889 26.7024 7.95527C26.712 7.89492 26.7339 7.86234 26.7447 7.79973C26.7566 7.73052 26.7613 7.68803 26.7781 7.62873L26.8386 7.28777C26.8537 7.16946 26.8569 7.0387 26.8734 6.91814C26.9112 6.63964 26.9133 6.24914 26.8871 5.96178L26.8224 5.43045C26.8061 5.36604 26.8049 5.33091 26.7976 5.26245L26.7255 4.93125C26.7021 4.86579 26.7054 4.8242 26.6872 4.7628L26.3467 3.80944C26.3196 3.73122 26.2826 3.67297 26.2478 3.59715C26.2322 3.56307 26.2305 3.56832 26.2155 3.53875C26.2029 3.51398 26.2008 3.49461 26.1858 3.46608C26.1655 3.4278 26.1331 3.37465 26.1145 3.34222L26.0061 3.1517C25.9878 3.11912 25.9852 3.11281 25.9691 3.08669L25.7361 2.72411C25.7055 2.67607 25.6785 2.6486 25.6486 2.60536C25.5914 2.52308 25.5262 2.45913 25.471 2.38181C25.3096 2.156 25.0827 1.94131 24.893 1.75694C24.8024 1.66897 24.6837 1.54826 24.589 1.47649C24.5448 1.44301 24.5179 1.4295 24.4688 1.39032C24.3222 1.27276 24.1689 1.14905 24.007 1.05026L23.4418 0.721764C23.3359 0.665163 23.2178 0.597002 23.1026 0.557066C23.0037 0.522835 22.8336 0.434856 22.7477 0.408132C22.5695 0.352582 22.2011 0.222114 22.0514 0.198843C21.9865 0.188634 21.9596 0.167315 21.8997 0.157706C21.8281 0.146146 21.7943 0.141492 21.7271 0.122725L21.387 0.0629713C21.0959 0.0201828 20.5261 -0.0191526 20.2511 0.0101237L20.2516 0.0099736Z" fill="#828282"/>
<path d="M25.5015 17C25.2805 17 25.0015 17.1791 25.0015 17.4V18.5H23.9015C23.6805 18.5 23.5015 18.7791 23.5015 19C23.5015 19.2209 23.6805 19.5 23.9015 19.5H25.0015C25.0015 19.5 25.0015 20.5 25.0015 20.6C25.0015 20.7 25.2209 20.9756 25.5015 21C25.782 21.0244 26.1015 20.8209 26.1015 20.6V19.5H27.1015C27.3224 19.5 27.5015 19.2209 27.5015 19C27.5015 18.7791 27.3224 18.5 27.1015 18.5H26.0015V17.4C26.0015 17.1791 25.7224 17 25.5015 17Z" fill="#828282"/>
<path d="M1.25711 40V31.4688H3.66531C4.4075 31.4688 5.06375 31.6328 5.63406 31.9609C6.20437 32.2891 6.64383 32.7559 6.95242 33.3613C7.26492 33.9668 7.42312 34.6621 7.42703 35.4473V35.9922C7.42703 36.7969 7.27078 37.502 6.95828 38.1074C6.64969 38.7129 6.20633 39.1777 5.6282 39.502C5.05398 39.8262 4.38406 39.9922 3.61844 40H1.25711ZM2.38211 32.3945V39.0801H3.5657C4.43289 39.0801 5.10672 38.8105 5.58719 38.2715C6.07156 37.7324 6.31375 36.9648 6.31375 35.9688V35.4707C6.31375 34.502 6.08523 33.75 5.6282 33.2148C5.17508 32.6758 4.53055 32.4023 3.69461 32.3945H2.38211ZM8.43508 36.7715C8.43508 36.1504 8.55617 35.5918 8.79836 35.0957C9.04445 34.5996 9.3843 34.2168 9.81789 33.9473C10.2554 33.6777 10.7534 33.543 11.312 33.543C12.1753 33.543 12.8726 33.8418 13.4038 34.4395C13.939 35.0371 14.2066 35.832 14.2066 36.8242V36.9004C14.2066 37.5176 14.0874 38.0723 13.8491 38.5645C13.6148 39.0527 13.2769 39.4336 12.8355 39.707C12.398 39.9805 11.8941 40.1172 11.3237 40.1172C10.4644 40.1172 9.76711 39.8184 9.23195 39.2207C8.7007 38.623 8.43508 37.832 8.43508 36.8477V36.7715ZM9.52492 36.9004C9.52492 37.6035 9.68703 38.168 10.0112 38.5938C10.3394 39.0195 10.7769 39.2324 11.3237 39.2324C11.8745 39.2324 12.312 39.0176 12.6362 38.5879C12.9605 38.1543 13.1226 37.5488 13.1226 36.7715C13.1226 36.0762 12.9566 35.5137 12.6245 35.084C12.2964 34.6504 11.8589 34.4336 11.312 34.4336C10.7769 34.4336 10.3452 34.6465 10.0171 35.0723C9.68898 35.498 9.52492 36.1074 9.52492 36.9004ZM17.8689 39.2324C18.2556 39.2324 18.5935 39.1152 18.8826 38.8809C19.1716 38.6465 19.3318 38.3535 19.363 38.002H20.3884C20.3689 38.3652 20.2439 38.7109 20.0134 39.0391C19.783 39.3672 19.4744 39.6289 19.0877 39.8242C18.7048 40.0195 18.2986 40.1172 17.8689 40.1172C17.0056 40.1172 16.3181 39.8301 15.8064 39.2559C15.2986 38.6777 15.0447 37.8887 15.0447 36.8887V36.707C15.0447 36.0898 15.158 35.541 15.3845 35.0605C15.6111 34.5801 15.9353 34.207 16.3572 33.9414C16.783 33.6758 17.2849 33.543 17.863 33.543C18.574 33.543 19.1638 33.7559 19.6326 34.1816C20.1052 34.6074 20.3572 35.1602 20.3884 35.8398H19.363C19.3318 35.4297 19.1755 35.0938 18.8943 34.832C18.617 34.5664 18.2732 34.4336 17.863 34.4336C17.3123 34.4336 16.8845 34.6328 16.5798 35.0312C16.2791 35.4258 16.1287 35.998 16.1287 36.748V36.9531C16.1287 37.6836 16.2791 38.2461 16.5798 38.6406C16.8806 39.0352 17.3103 39.2324 17.8689 39.2324ZM22.8379 32.125V33.6602H24.0215V34.498H22.8379V38.4297C22.8379 38.6836 22.8906 38.875 22.9961 39.0039C23.1016 39.1289 23.2812 39.1914 23.5352 39.1914C23.6602 39.1914 23.832 39.168 24.0508 39.1211V40C23.7656 40.0781 23.4883 40.1172 23.2188 40.1172C22.7344 40.1172 22.3691 39.9707 22.123 39.6777C21.877 39.3848 21.7539 38.9688 21.7539 38.4297V34.498H20.5996V33.6602H21.7539V32.125H22.8379ZM24.6487 36.7715C24.6487 36.1504 24.7698 35.5918 25.012 35.0957C25.258 34.5996 25.5979 34.2168 26.0315 33.9473C26.469 33.6777 26.967 33.543 27.5256 33.543C28.3889 33.543 29.0862 33.8418 29.6174 34.4395C30.1526 35.0371 30.4202 35.832 30.4202 36.8242V36.9004C30.4202 37.5176 30.301 38.0723 30.0627 38.5645C29.8284 39.0527 29.4905 39.4336 29.0491 39.707C28.6116 39.9805 28.1077 40.1172 27.5373 40.1172C26.678 40.1172 25.9807 39.8184 25.4455 39.2207C24.9143 38.623 24.6487 37.832 24.6487 36.8477V36.7715ZM25.7385 36.9004C25.7385 37.6035 25.9006 38.168 26.2248 38.5938C26.553 39.0195 26.9905 39.2324 27.5373 39.2324C28.0881 39.2324 28.5256 39.0176 28.8498 38.5879C29.1741 38.1543 29.3362 37.5488 29.3362 36.7715C29.3362 36.0762 29.1702 35.5137 28.8381 35.084C28.51 34.6504 28.0725 34.4336 27.5256 34.4336C26.9905 34.4336 26.5588 34.6465 26.2307 35.0723C25.9026 35.498 25.7385 36.1074 25.7385 36.9004ZM34.604 34.6328C34.4399 34.6055 34.2622 34.5918 34.0708 34.5918C33.3598 34.5918 32.8774 34.8945 32.6235 35.5V40H31.5395V33.6602H32.5942L32.6118 34.3926C32.9673 33.8262 33.4712 33.543 34.1235 33.543C34.3345 33.543 34.4946 33.5703 34.604 33.625V34.6328ZM39.0573 38.3184C39.0573 38.0254 38.946 37.7988 38.7234 37.6387C38.5046 37.4746 38.1198 37.334 37.5691 37.2168C37.0222 37.0996 36.5866 36.959 36.2624 36.7949C35.9421 36.6309 35.7038 36.4355 35.5476 36.209C35.3952 35.9824 35.3191 35.7129 35.3191 35.4004C35.3191 34.8809 35.5378 34.4414 35.9753 34.082C36.4167 33.7227 36.9792 33.543 37.6628 33.543C38.3816 33.543 38.9636 33.7285 39.4089 34.0996C39.8581 34.4707 40.0827 34.9453 40.0827 35.5234H38.9929C38.9929 35.2266 38.8659 34.9707 38.612 34.7559C38.362 34.541 38.0456 34.4336 37.6628 34.4336C37.2683 34.4336 36.9597 34.5195 36.737 34.6914C36.5144 34.8633 36.403 35.0879 36.403 35.3652C36.403 35.627 36.5066 35.8242 36.7136 35.957C36.9206 36.0898 37.2937 36.2168 37.8327 36.3379C38.3757 36.459 38.8152 36.6035 39.1511 36.7715C39.487 36.9395 39.7351 37.1426 39.8952 37.3809C40.0593 37.6152 40.1413 37.9023 40.1413 38.2422C40.1413 38.8086 39.9148 39.2637 39.4616 39.6074C39.0085 39.9473 38.4206 40.1172 37.698 40.1172C37.1902 40.1172 36.7409 40.0273 36.3503 39.8477C35.9597 39.668 35.653 39.418 35.4304 39.0977C35.2116 38.7734 35.1023 38.4238 35.1023 38.0488H36.1862C36.2058 38.4121 36.3503 38.7012 36.6198 38.916C36.8933 39.127 37.2527 39.2324 37.698 39.2324C38.1081 39.2324 38.4362 39.1504 38.6823 38.9863C38.9323 38.8184 39.0573 38.5957 39.0573 38.3184Z" fill="#828282"/>
</svg>
