<svg width="32" height="43" viewBox="0 0 32 43" fill="none" xmlns="http://www.w3.org/2000/svg">
<g opacity="0.7">
<path fill-rule="evenodd" clip-rule="evenodd" d="M9.65877 22.4245C9.03609 22.4245 8.10274 22.4578 7.51646 22.4133C7.38603 22.4034 7.28626 22.3824 7.16143 22.3511L6.88038 22.24C6.7862 22.1852 6.76763 22.1925 6.61716 22.0976L6.46329 21.985C6.28423 21.849 6.14141 21.6807 6.01673 21.4935C5.93258 21.3672 5.84474 21.1907 5.79493 21.044C5.75867 20.9376 5.74157 20.8228 5.71623 20.7171C5.66155 20.4894 5.68572 20.1848 5.68572 19.9474V8.13564C5.68542 7.79549 5.70355 7.89777 5.73715 7.64207L5.79448 7.4322C5.88674 7.14363 6.10339 6.81748 6.32078 6.61557C6.53492 6.41675 6.71693 6.32582 6.9607 6.18994L7.14183 6.09399C7.25369 6.03666 7.36953 5.96047 7.4864 5.90535L7.65751 5.80985C7.78632 5.75428 7.88786 5.68163 8.01004 5.6181L8.53397 5.3316C8.57082 5.30861 8.58998 5.31038 8.62888 5.28753L9.83268 4.62698C9.98699 4.55403 10.1182 4.47636 10.2686 4.39073L11.1423 3.92147C11.2858 3.86105 11.4393 3.74462 11.5841 3.67918L11.8381 3.53991C11.8589 3.52797 11.8667 3.52694 11.8839 3.51648L12.1022 3.39946C12.2519 3.30336 12.6792 3.08421 12.8815 2.97456C13.0019 2.90942 13.2996 2.73197 13.4063 2.6885L14.1051 2.31003C14.1668 2.272 14.2168 2.2527 14.2757 2.21438C14.3107 2.19168 14.3336 2.18947 14.3687 2.16884L14.6237 2.02942C14.7466 1.96501 15.0312 1.79464 15.1426 1.74895L15.3364 1.67733C15.4797 1.61322 15.6263 1.60305 15.7849 1.58212C16.1127 1.53879 16.4161 1.6032 16.7188 1.70091C16.7653 1.71594 16.766 1.72832 16.8139 1.74497L16.9492 1.80673C16.9653 1.81454 16.9767 1.82427 16.9921 1.83311L18.8163 2.82335C18.932 2.88938 19.0458 2.93963 19.1608 3.01111C19.2741 3.08156 19.4051 3.13181 19.518 3.19784L19.8604 3.3887C20.0692 3.49466 20.3511 3.66754 20.5572 3.76923L21.1635 4.1001C21.1914 4.11675 21.2204 4.12456 21.2502 4.14107L21.6037 4.33266C21.7091 4.3841 21.8308 4.47326 21.9458 4.52263C21.9862 4.53988 21.9906 4.54857 22.0369 4.57024C22.0798 4.59013 22.0799 4.59706 22.1271 4.61946L22.8231 4.99955C22.987 5.10272 23.1814 5.18275 23.3425 5.27928L23.6877 5.46719C23.8327 5.53896 23.9795 5.63918 24.1221 5.70447L24.5578 5.94072C24.5781 5.95192 24.5855 5.95295 24.6048 5.96238C24.6364 5.97771 24.6247 5.97432 24.6477 5.98862C24.7886 6.07601 24.9374 6.14454 25.0808 6.22796C25.1887 6.2906 25.3171 6.3494 25.42 6.42147C25.7261 6.63605 25.9989 6.95719 26.1427 7.3084C26.2649 7.60655 26.3035 7.9044 26.3035 8.22819V19.5071C26.3034 19.8575 26.3137 20.2233 26.2966 20.5709C26.2925 20.6546 26.2659 20.7235 26.2547 20.8044C26.2423 20.8934 26.222 20.9348 26.2006 21.0181C26.188 21.067 26.1743 21.0812 26.1613 21.118C26.1454 21.1634 26.1468 21.1708 26.1264 21.2094C26.0958 21.2667 26.0743 21.3279 26.0372 21.3864C25.9731 21.487 25.9007 21.6085 25.8207 21.7029C25.6934 21.8533 25.5528 21.97 25.3918 22.0847C25.3088 22.1438 25.1343 22.2362 25.0425 22.2683C24.899 22.3183 24.8879 22.3325 24.7352 22.3663C24.6994 22.3743 24.6779 22.3884 24.6383 22.3967C24.5702 22.4108 24.4635 22.4138 24.397 22.4189C24.2107 22.4334 24.0511 22.4241 23.8697 22.4241C20.897 22.4337 17.9243 22.4167 14.9516 22.4241H9.65951L9.65877 22.4245ZM24.2844 24C24.5305 24 24.7696 23.9739 25.0014 23.9315C25.0472 23.9231 25.0758 23.9066 25.1196 23.8971C25.1663 23.8871 25.1976 23.8868 25.2427 23.87C25.3651 23.8248 25.403 23.8264 25.5862 23.7509L26.202 23.4403C26.2689 23.4012 26.3297 23.3614 26.39 23.3154C26.6818 23.0926 26.9452 22.8491 27.1655 22.5511C27.3216 22.3402 27.4631 22.1087 27.5729 21.8693C27.6215 21.7632 27.7496 21.4136 27.7736 21.3066L27.8299 21.0475C27.8396 20.9522 27.8623 20.8806 27.8716 20.7924C27.8917 20.6036 27.8877 20.3861 27.8877 20.1905V12.7793C27.8877 11.957 27.8875 11.135 27.8877 10.3127C27.8877 9.89962 27.8877 9.48681 27.8877 9.07371C27.8877 8.72088 27.9259 7.8879 27.8497 7.57015C27.8287 7.48275 27.8314 7.39093 27.8003 7.30707C27.7813 7.25564 27.7838 7.22159 27.7721 7.17237C27.7449 7.05815 27.6178 6.71166 27.5688 6.61203C27.4506 6.3718 27.3138 6.14705 27.1639 5.92804L26.8031 5.51288C26.7227 5.43108 26.6395 5.36889 26.5527 5.30006C26.5261 5.27884 26.501 5.25305 26.4712 5.23123C26.4348 5.20456 26.4183 5.19115 26.3849 5.16653C26.3653 5.15209 26.3573 5.14369 26.3389 5.13219C26.3233 5.12247 26.3122 5.11908 26.2942 5.10714C25.9778 4.89433 25.632 4.74031 25.3038 4.54489L24.8069 4.27857C24.6539 4.2127 24.0557 3.85869 23.8013 3.73239L22.7123 3.14198C22.67 3.12327 22.6478 3.10956 22.6066 3.08583L22.5088 3.03322C22.4749 3.01774 22.4871 3.01848 22.4582 3.00227C22.441 2.99254 22.4165 2.98385 22.403 2.97648L22.2554 2.89173C22.2279 2.87788 22.2273 2.8767 22.2039 2.86344L21.5116 2.48998C21.481 2.47214 21.4879 2.47156 21.4625 2.45814L21.1152 2.27245C21.0155 2.20878 20.9084 2.16 20.8055 2.10738L20.3072 1.84136C20.2798 1.82736 20.2349 1.80127 20.2042 1.78211C20.1687 1.75986 20.1423 1.75338 20.1047 1.73112C19.7815 1.53968 19.4255 1.37859 19.1067 1.18877L18.7552 0.996435C18.7338 0.985382 18.7366 0.983466 18.7104 0.970644L17.9161 0.53838C17.8414 0.496377 17.7761 0.471322 17.7097 0.432119C17.6739 0.410897 17.6307 0.384221 17.6062 0.372726C17.5822 0.361525 17.5717 0.362409 17.5478 0.350324C17.4047 0.27855 17.2205 0.19867 17.0552 0.160057C17.0043 0.148119 16.9918 0.130729 16.9345 0.119233C16.8983 0.112011 16.853 0.104348 16.8117 0.0912309C16.7311 0.0654395 16.6419 0.0621972 16.5601 0.0425957C16.4166 0.00825631 16.1517 0.000297822 15.9933 3.06297e-06C15.6181 -0.000439075 15.374 0.0470171 15.0316 0.121886L14.6846 0.237579C14.6109 0.273834 14.5345 0.292109 14.4645 0.33028C14.3625 0.38599 14.2588 0.427551 14.1614 0.490334L13.1589 1.03947C12.9979 1.13748 12.8274 1.22281 12.6644 1.30917L12.3647 1.47306C12.3296 1.49207 12.301 1.50209 12.2664 1.52464C12.2403 1.54174 12.2509 1.53732 12.2149 1.55471L10.6711 2.39683C10.6322 2.41526 10.616 2.42882 10.5665 2.45387L9.96783 2.78238C9.92951 2.80449 9.9049 2.82276 9.87321 2.83794C9.80556 2.87007 9.74057 2.90647 9.67631 2.94199L9.28104 3.16041C9.21958 3.1974 9.13911 3.23365 9.07736 3.26976L8.67192 3.49009C8.56979 3.54271 8.47708 3.58751 8.37495 3.65545L8.02758 3.84056C7.99972 3.85456 7.99648 3.86031 7.97658 3.87122L6.88553 4.47135C6.83985 4.49375 6.82083 4.50672 6.77898 4.52455L6.38326 4.744C6.34951 4.76448 6.31871 4.77421 6.28482 4.79617C6.19064 4.85689 6.08349 4.90435 5.98593 4.9605C5.94584 4.98349 5.92079 4.99646 5.88984 5.014L5.6978 5.13544C5.51387 5.25924 5.34807 5.38981 5.18993 5.55429C5.08618 5.66202 4.98021 5.76858 4.89046 5.89149C4.88898 5.89341 4.88692 5.89606 4.88545 5.89798C4.88397 5.89989 4.88176 5.90255 4.88029 5.90432C4.87823 5.90697 4.87174 5.91419 4.86968 5.91684C4.8682 5.91876 4.86599 5.92141 4.86452 5.92318C4.81191 5.99201 4.74544 6.06879 4.70476 6.14558L4.53233 6.43621C4.49357 6.49678 4.46718 6.58388 4.43078 6.6474C4.39408 6.71137 4.37213 6.79743 4.3453 6.86302C4.33248 6.89426 4.32909 6.88748 4.31818 6.91681L4.20367 7.33537C4.18834 7.42881 4.1655 7.48673 4.1543 7.59933C4.14575 7.68466 4.12423 7.77412 4.1176 7.8621C4.08886 8.24632 4.11008 8.70408 4.11008 9.09626V20.2014C4.11008 20.4036 4.10168 20.6094 4.13971 20.7991C4.1571 20.8862 4.15165 20.984 4.17773 21.0744C4.20175 21.1573 4.20839 21.2493 4.23624 21.3158C4.25717 21.3659 4.25334 21.3967 4.26955 21.4449C4.3425 21.6604 4.4296 21.8886 4.54235 22.0867C4.73085 22.4183 4.936 22.7166 5.20541 22.9754C5.27556 23.0429 5.36649 23.1331 5.44711 23.1854C5.50886 23.2255 5.55912 23.2724 5.62411 23.3209C5.67953 23.3621 5.75012 23.4031 5.8048 23.4414C5.85167 23.4742 5.85005 23.4715 5.90752 23.501C5.93022 23.5126 5.9678 23.538 6.00126 23.5577C6.13242 23.6345 6.50176 23.8041 6.64884 23.8358C6.71207 23.8495 6.72032 23.8563 6.77279 23.8743C6.81789 23.8899 6.85164 23.887 6.89806 23.8993C6.94699 23.9123 6.96423 23.9263 7.01744 23.9335C7.25221 23.9654 7.47004 23.9991 7.71307 23.9991H24.2841L24.2844 24Z" fill="#828282"/>
<path fill-rule="evenodd" clip-rule="evenodd" d="M14.6034 20.3194C14.647 20.3281 14.6613 20.3279 14.704 20.3466C14.8168 20.3962 15.0135 20.4094 15.136 20.4476C15.3773 20.5229 15.8754 20.5251 16.1326 20.5255C16.3601 20.526 16.8707 20.479 17.1012 20.4068L17.4292 20.3183C17.4759 20.3067 17.4854 20.2933 17.5218 20.2818C17.5611 20.2696 17.594 20.269 17.6297 20.2532C17.6672 20.2367 17.6751 20.2327 17.7216 20.218L18.1947 20.0068C18.2319 19.9847 18.2456 19.9833 18.2795 19.9648C18.4488 19.8724 18.6237 19.772 18.7794 19.6541C18.8336 19.613 18.8811 19.5795 18.9303 19.5381C18.9826 19.4942 19.0261 19.4699 19.0822 19.4242C19.3238 19.227 19.647 18.8662 19.7905 18.6848C20.1515 18.2286 20.4129 17.6947 20.5868 17.1423L20.6937 16.7148C20.7301 16.482 20.6697 16.2423 20.5308 16.0713C20.4464 15.9673 20.3565 15.9114 20.2169 15.8408C20.1899 15.8271 20.0349 15.7872 19.9994 15.7821C19.875 15.7648 19.7561 15.7982 19.6408 15.8252C19.5945 15.8361 19.5945 15.8448 19.5525 15.865C19.33 15.9723 19.2016 16.1633 19.1301 16.3913C19.1189 16.4268 19.1176 16.4714 19.1071 16.5087C19.0946 16.5534 19.0825 16.5625 19.0738 16.6135C19.052 16.7404 18.9552 16.9991 18.8979 17.1091L18.7604 17.3763C18.7505 17.3952 18.7276 17.4307 18.7114 17.4562C18.694 17.4838 18.6784 17.5059 18.657 17.5401L18.6478 17.5538C18.524 17.7368 18.3898 17.9074 18.2277 18.0605C18.0352 18.2423 17.8419 18.3865 17.617 18.5271C17.4784 18.6136 17.2161 18.7286 17.0624 18.7823C17.0186 18.7977 16.9975 18.7952 16.9557 18.8142C16.9121 18.8338 16.915 18.8341 16.8581 18.8444C16.714 18.8706 16.5615 18.9237 16.4099 18.9361C16.2534 18.9489 16.0421 18.962 15.8959 18.9493C15.8073 18.9417 15.7142 18.9439 15.6231 18.9362C15.54 18.9293 15.482 18.907 15.4025 18.8961C15.1835 18.8664 14.7953 18.739 14.59 18.6188C14.558 18.6 14.5289 18.5924 14.4962 18.5735C14.4709 18.5589 14.4426 18.539 14.419 18.5233C14.387 18.5019 14.3639 18.4955 14.3304 18.4727L14.1315 18.3365C13.9496 18.2133 13.7907 18.0488 13.6379 17.8922L13.6075 17.8527C13.5231 17.7382 13.497 17.7252 13.404 17.5824L13.0877 17.0175C13.05 16.95 12.9377 16.6032 12.9229 16.5111C12.901 16.3751 12.8559 16.2315 12.7731 16.117C12.687 15.9981 12.5437 15.8703 12.3933 15.8249C12.1432 15.7494 11.8614 15.7627 11.6499 15.9285C11.4708 16.0688 11.2751 16.3218 11.3332 16.6828L11.5019 17.3295C11.6726 17.8129 11.8845 18.165 12.1482 18.5707C12.2079 18.6625 12.372 18.8585 12.4568 18.9458C12.483 18.9728 12.496 18.9934 12.5231 19.0184L12.933 19.4077C13.0313 19.4998 13.1327 19.5655 13.2417 19.6435C13.263 19.6587 13.2966 19.6874 13.3201 19.7041C13.3568 19.73 13.3725 19.7278 13.408 19.7546C13.5419 19.8564 13.6932 19.9259 13.8373 20.0093L14.1064 20.1332C14.2159 20.1813 14.5082 20.3002 14.6035 20.3194H14.6034Z" fill="#828282"/>
<path d="M7.54688 40H6.41602V36.0566H2.11523V40H0.990234V31.4688H2.11523V35.1367H6.41602V31.4688H7.54688V40ZM8.84789 36.7715C8.84789 36.1504 8.96898 35.5918 9.21117 35.0957C9.45727 34.5996 9.79711 34.2168 10.2307 33.9473C10.6682 33.6777 11.1663 33.543 11.7248 33.543C12.5881 33.543 13.2854 33.8418 13.8166 34.4395C14.3518 35.0371 14.6194 35.832 14.6194 36.8242V36.9004C14.6194 37.5176 14.5002 38.0723 14.262 38.5645C14.0276 39.0527 13.6897 39.4336 13.2483 39.707C12.8108 39.9805 12.3069 40.1172 11.7366 40.1172C10.8772 40.1172 10.1799 39.8184 9.64477 39.2207C9.11352 38.623 8.84789 37.832 8.84789 36.8477V36.7715ZM9.93773 36.9004C9.93773 37.6035 10.0998 38.168 10.4241 38.5938C10.7522 39.0195 11.1897 39.2324 11.7366 39.2324C12.2873 39.2324 12.7248 39.0176 13.0491 38.5879C13.3733 38.1543 13.5354 37.5488 13.5354 36.7715C13.5354 36.0762 13.3694 35.5137 13.0373 35.084C12.7092 34.6504 12.2717 34.4336 11.7248 34.4336C11.1897 34.4336 10.758 34.6465 10.4299 35.0723C10.1018 35.498 9.93773 36.1074 9.93773 36.9004ZM16.7583 33.6602L16.7876 34.3633C17.2524 33.8164 17.8794 33.543 18.6684 33.543C19.5552 33.543 20.1587 33.8828 20.479 34.5625C20.6899 34.2578 20.9634 34.0117 21.2993 33.8242C21.6391 33.6367 22.0395 33.543 22.5005 33.543C23.8911 33.543 24.5981 34.2793 24.6216 35.752V40H23.5376V35.8164C23.5376 35.3633 23.4341 35.0254 23.227 34.8027C23.02 34.5762 22.6723 34.4629 22.1841 34.4629C21.7817 34.4629 21.4477 34.584 21.1821 34.8262C20.9165 35.0645 20.7622 35.3867 20.7192 35.793V40H19.6294V35.8457C19.6294 34.9238 19.1782 34.4629 18.2759 34.4629C17.5649 34.4629 17.0786 34.7656 16.8169 35.3711V40H15.7329V33.6602H16.7583ZM28.653 40.1172C27.7937 40.1172 27.0945 39.8359 26.5554 39.2734C26.0163 38.707 25.7468 37.9512 25.7468 37.0059V36.8066C25.7468 36.1777 25.8659 35.6172 26.1042 35.125C26.3464 34.6289 26.6823 34.2422 27.112 33.9648C27.5456 33.6836 28.0144 33.543 28.5183 33.543C29.3425 33.543 29.9831 33.8145 30.4402 34.3574C30.8972 34.9004 31.1257 35.6777 31.1257 36.6895V37.1406H26.8308C26.8464 37.7656 27.028 38.2715 27.3757 38.6582C27.7273 39.041 28.1726 39.2324 28.7116 39.2324C29.0945 39.2324 29.4187 39.1543 29.6843 38.998C29.9499 38.8418 30.1823 38.6348 30.3816 38.377L31.0437 38.8926C30.5124 39.709 29.7155 40.1172 28.653 40.1172ZM28.5183 34.4336C28.0808 34.4336 27.7136 34.5938 27.4167 34.9141C27.1198 35.2305 26.9363 35.6758 26.8659 36.25H30.0417V36.168C30.0105 35.6172 29.862 35.1914 29.5964 34.8906C29.3308 34.5859 28.9714 34.4336 28.5183 34.4336Z" fill="#828282"/>
</g>
</svg>
