<svg width="53" height="43" viewBox="0 0 53 43" fill="none" xmlns="http://www.w3.org/2000/svg">
<path fill-rule="evenodd" clip-rule="evenodd" d="M37.5328 4.45721C37.5655 4.4632 37.5952 4.46865 37.6194 4.46865C38.2122 4.57643 38.5894 5.14229 38.4816 5.70815L36.7302 14.4655C36.4338 15.8397 35.2212 16.8367 33.82 16.8367H22.6106C21.1556 16.8367 19.9161 15.7589 19.7005 14.3308L18.0299 2.95969C18.0029 2.82496 17.8952 2.71718 17.7604 2.71718H15.5778C14.985 2.71718 14.5 2.23216 14.5 1.63935C14.5 1.04655 14.985 0.561523 15.5778 0.561523H17.7604C18.973 0.561523 19.9969 1.45073 20.1586 2.63634L20.428 4.4417H37.4038C37.4483 4.4417 37.4928 4.44987 37.5328 4.45721ZM27.4992 7.4732C27.4992 7.03721 27.8526 6.68377 28.2886 6.68377C28.7246 6.68377 29.078 7.03721 29.078 7.4732V9.84147H31.4463C31.8823 9.84147 32.2357 10.1949 32.2357 10.6309C32.2357 11.0669 31.8823 11.4203 31.4463 11.4203H29.078V13.7886C29.078 14.2246 28.7246 14.578 28.2886 14.578C27.8526 14.578 27.4992 14.2246 27.4992 13.7886V11.4203H25.1309C24.6949 11.4203 24.3415 11.0669 24.3415 10.6309C24.3415 10.1949 24.6949 9.84147 25.1309 9.84147H27.4992V7.4732Z" fill="#9F5DE2"/>
<path d="M32.6881 17.8337C31.1522 17.8337 29.8857 19.0732 29.8857 20.6361C29.8857 22.172 31.1252 23.4384 32.6881 23.4384C34.224 23.4384 35.4904 22.1989 35.4904 20.6361C35.4635 19.1002 34.224 17.8337 32.6881 17.8337Z" fill="#9F5DE2"/>
<path d="M25.817 20.5013C25.7631 19.0193 24.5236 17.8337 23.0415 17.8337C21.4787 17.9146 20.2931 19.208 20.347 20.7439C20.4009 22.2259 21.6134 23.4115 23.0954 23.4115H23.1493C24.6852 23.3306 25.8978 22.0372 25.817 20.5013Z" fill="#9F5DE2"/>
<path d="M2.5607 36.0986V39.4384H1.4357V30.9072H4.58219C5.51578 30.9072 6.24625 31.1454 6.77359 31.622C7.30484 32.0986 7.57047 32.7294 7.57047 33.5146C7.57047 34.3427 7.3107 34.9814 6.79117 35.4306C6.27555 35.8759 5.53531 36.0986 4.57047 36.0986H2.5607ZM2.5607 35.1786H4.58219C5.18375 35.1786 5.64469 35.038 5.965 34.7568C6.28531 34.4716 6.44547 34.0615 6.44547 33.5263C6.44547 33.0185 6.28531 32.6122 5.965 32.3076C5.64469 32.0029 5.20523 31.8447 4.64664 31.8329H2.5607V35.1786ZM9.68008 33.8661C10.1605 33.2763 10.7855 32.9814 11.5551 32.9814C12.8949 32.9814 13.5707 33.7372 13.5824 35.249V39.4384H12.4984V35.2431C12.4945 34.7861 12.3891 34.4482 12.182 34.2294C11.9789 34.0107 11.6605 33.9013 11.227 33.9013C10.8754 33.9013 10.5668 33.9951 10.3012 34.1826C10.0355 34.3701 9.82852 34.6161 9.68008 34.9208V39.4384H8.59609V30.4384H9.68008V33.8661ZM18.8795 39.4384C18.817 39.3134 18.7663 39.0908 18.7272 38.7704C18.2233 39.2939 17.6217 39.5556 16.9225 39.5556C16.2975 39.5556 15.7838 39.3798 15.3815 39.0283C14.983 38.6728 14.7838 38.2236 14.7838 37.6806C14.7838 37.0204 15.0338 36.5087 15.5338 36.1454C16.0377 35.7783 16.7448 35.5947 17.6549 35.5947H18.7096V35.0966C18.7096 34.7177 18.5963 34.4169 18.3698 34.1943C18.1432 33.9677 17.8092 33.8544 17.3678 33.8544C16.9811 33.8544 16.6569 33.9521 16.3952 34.1474C16.1334 34.3427 16.0026 34.579 16.0026 34.8564H14.9127C14.9127 34.54 15.0241 34.2353 15.2467 33.9423C15.4733 33.6454 15.778 33.4111 16.1608 33.2392C16.5475 33.0673 16.9713 32.9814 17.4323 32.9814C18.1627 32.9814 18.735 33.165 19.1491 33.5322C19.5631 33.8954 19.778 34.3974 19.7936 35.038V37.956C19.7936 38.538 19.8678 39.0009 20.0163 39.3447V39.4384H18.8795ZM17.0807 38.6122C17.4205 38.6122 17.7428 38.5244 18.0475 38.3486C18.3522 38.1728 18.5729 37.9443 18.7096 37.663V36.3622H17.86C16.5319 36.3622 15.8678 36.7509 15.8678 37.5283C15.8678 37.8681 15.9811 38.1337 16.2077 38.3251C16.4342 38.5165 16.7252 38.6122 17.0807 38.6122ZM24.3173 34.0712C24.1532 34.0439 23.9755 34.0302 23.7841 34.0302C23.0731 34.0302 22.5907 34.3329 22.3368 34.9384V39.4384H21.2528V33.0986H22.3075L22.3251 33.831C22.6805 33.2646 23.1845 32.9814 23.8368 32.9814C24.0477 32.9814 24.2079 33.0087 24.3173 33.0634V34.0712ZM26.0988 33.0986L26.128 33.8017C26.5929 33.2548 27.2198 32.9814 28.0089 32.9814C28.8956 32.9814 29.4991 33.3212 29.8195 34.0009C30.0304 33.6962 30.3038 33.4501 30.6398 33.2626C30.9796 33.0751 31.38 32.9814 31.8409 32.9814C33.2316 32.9814 33.9386 33.7177 33.962 35.1904V39.4384H32.878V35.2548C32.878 34.8017 32.7745 34.4638 32.5675 34.2411C32.3605 34.0146 32.0128 33.9013 31.5245 33.9013C31.1222 33.9013 30.7882 34.0224 30.5226 34.2646C30.257 34.5029 30.1027 34.8251 30.0597 35.2314V39.4384H28.9698V35.2841C28.9698 34.3622 28.5187 33.9013 27.6163 33.9013C26.9054 33.9013 26.4191 34.204 26.1573 34.8095V39.4384H25.0734V33.0986H26.0988ZM39.2767 39.4384C39.2142 39.3134 39.1634 39.0908 39.1244 38.7704C38.6205 39.2939 38.0189 39.5556 37.3197 39.5556C36.6947 39.5556 36.181 39.3798 35.7787 39.0283C35.3802 38.6728 35.181 38.2236 35.181 37.6806C35.181 37.0204 35.431 36.5087 35.931 36.1454C36.4349 35.7783 37.142 35.5947 38.0521 35.5947H39.1068V35.0966C39.1068 34.7177 38.9935 34.4169 38.767 34.1943C38.5404 33.9677 38.2064 33.8544 37.765 33.8544C37.3783 33.8544 37.0541 33.9521 36.7923 34.1474C36.5306 34.3427 36.3998 34.579 36.3998 34.8564H35.3099C35.3099 34.54 35.4212 34.2353 35.6439 33.9423C35.8705 33.6454 36.1752 33.4111 36.558 33.2392C36.9447 33.0673 37.3685 32.9814 37.8295 32.9814C38.5599 32.9814 39.1322 33.165 39.5462 33.5322C39.9603 33.8954 40.1752 34.3974 40.1908 35.038V37.956C40.1908 38.538 40.265 39.0009 40.4134 39.3447V39.4384H39.2767ZM37.4779 38.6122C37.8177 38.6122 38.14 38.5244 38.4447 38.3486C38.7494 38.1728 38.9701 37.9443 39.1068 37.663V36.3622H38.2572C36.9291 36.3622 36.265 36.7509 36.265 37.5283C36.265 37.8681 36.3783 38.1337 36.6048 38.3251C36.8314 38.5165 37.1224 38.6122 37.4779 38.6122ZM44.193 38.6708C44.5797 38.6708 44.9176 38.5536 45.2066 38.3193C45.4957 38.0849 45.6559 37.7919 45.6871 37.4404H46.7125C46.693 37.8036 46.568 38.1494 46.3375 38.4775C46.107 38.8056 45.7984 39.0673 45.4117 39.2626C45.0289 39.4579 44.6227 39.5556 44.193 39.5556C43.3297 39.5556 42.6422 39.2685 42.1305 38.6943C41.6227 38.1161 41.3688 37.3271 41.3688 36.3271V36.1454C41.3688 35.5283 41.482 34.9794 41.7086 34.499C41.9352 34.0185 42.2594 33.6454 42.6813 33.3798C43.107 33.1142 43.609 32.9814 44.1871 32.9814C44.898 32.9814 45.4879 33.1943 45.9566 33.6201C46.4293 34.0458 46.6813 34.5986 46.7125 35.2783H45.6871C45.6559 34.8681 45.4996 34.5322 45.2184 34.2704C44.941 34.0048 44.5973 33.872 44.1871 33.872C43.6363 33.872 43.2086 34.0712 42.9039 34.4697C42.6031 34.8642 42.4527 35.4365 42.4527 36.1865V36.3915C42.4527 37.122 42.6031 37.6845 42.9039 38.079C43.2047 38.4736 43.6344 38.6708 44.193 38.6708ZM49.7655 37.8505L51.242 33.0986H52.4022L49.8534 40.4169C49.4588 41.4716 48.8319 41.999 47.9725 41.999L47.7674 41.9814L47.3631 41.9052V41.0263L47.6561 41.0497C48.0233 41.0497 48.3084 40.9755 48.5116 40.8271C48.7186 40.6786 48.8885 40.4072 49.0213 40.0126L49.2616 39.3681L46.9998 33.0986H48.1834L49.7655 37.8505Z" fill="#9F5DE2"/>
</svg>
