<svg width="34" height="43" viewBox="0 0 34 43" fill="none" xmlns="http://www.w3.org/2000/svg">
<g opacity="0.7">
<path fill-rule="evenodd" clip-rule="evenodd" d="M24.5946 19.0717C24.5863 19.1263 24.56 19.1507 24.5305 19.1835L24.2767 19.4452C24.1745 19.5474 24.1644 19.5425 24.0942 19.6062L23.9231 19.7678C23.8589 19.8289 23.8099 19.8723 23.7407 19.929C23.6743 19.9835 23.6208 20.0293 23.5547 20.0869L23.1671 20.3752C23.1367 20.3985 23.109 20.4295 23.0733 20.4532C23.039 20.4759 23.007 20.4939 22.9711 20.5232C22.9145 20.5693 22.8662 20.5879 22.8127 20.6282C22.666 20.7389 22.5145 20.8314 22.3529 20.9245C22.3182 20.9445 22.2773 20.9737 22.2479 20.9911L21.9172 21.1656C21.8031 21.2187 21.6964 21.2949 21.5817 21.3452L21.4724 21.3964C21.4444 21.409 21.4348 21.4045 21.405 21.4207L21.2865 21.4741C21.1582 21.5384 20.8676 21.6734 20.7494 21.7051L20.5105 21.7985C20.4822 21.8088 20.459 21.8077 20.4356 21.8152C20.4079 21.8241 20.4053 21.8311 20.3821 21.8421C20.335 21.8645 20.2951 21.8555 20.2495 21.8807C20.2066 21.9044 20.0386 21.9536 19.9888 21.9625C19.9181 21.9752 19.9372 21.9963 19.8595 22.0072C19.7706 22.0197 19.7937 22.0155 19.7252 22.0444C19.6701 22.0677 19.6374 22.0535 19.5829 22.0729C19.4484 22.1202 19.4438 22.1031 19.3228 22.1454C19.2671 22.1649 19.2268 22.1554 19.1719 22.1682C19.1128 22.1819 19.114 22.1993 19.0382 22.2071C18.9847 22.2125 18.9367 22.2099 18.8856 22.2253C18.8332 22.2411 18.8122 22.2564 18.751 22.2604C18.6948 22.264 18.6415 22.2624 18.5934 22.2755C18.4675 22.3099 18.4291 22.3038 18.3035 22.3152C18.198 22.3249 18.1168 22.3574 18.0066 22.3608C17.4922 22.3763 16.8964 22.4608 16.3889 22.3799C16.2813 22.3628 16.1724 22.3626 16.0588 22.3611C15.9416 22.3596 15.8799 22.3348 15.7725 22.3185C15.6618 22.3017 15.5736 22.3178 15.464 22.2847C15.3667 22.2554 15.2563 22.272 15.1669 22.2382C15.0665 22.2002 14.9857 22.2204 14.8814 22.1795C14.8272 22.1582 14.7911 22.1664 14.733 22.1551C14.6833 22.1453 14.6658 22.1226 14.6136 22.1147C14.5449 22.1045 14.5339 22.1165 14.4686 22.0878C14.3986 22.0569 14.4019 22.0706 14.3295 22.0568C14.2742 22.0461 14.2683 22.0236 14.2015 22.0128C14.1345 22.0021 14.1232 21.9911 14.0697 21.9716C14.0088 21.9495 13.9966 21.971 13.9313 21.9384C13.8707 21.9081 13.8585 21.9212 13.7986 21.8996L13.4308 21.7642C13.3697 21.7489 13.3635 21.7337 13.3054 21.716C13.2735 21.7063 13.2665 21.7115 13.2336 21.6966C13.2048 21.6836 13.2099 21.6796 13.1816 21.669C13.1586 21.6604 13.1451 21.6616 13.1193 21.6515L12.9458 21.5715C12.9139 21.5581 12.9041 21.563 12.8746 21.5512C12.8437 21.5387 12.85 21.5344 12.8239 21.5217C12.7985 21.5094 12.78 21.5095 12.7561 21.4982L12.6498 21.4438C12.6255 21.4286 12.6336 21.427 12.5988 21.4142L12.3639 21.306C12.2293 21.2473 12.0949 21.1658 11.9637 21.0988C11.8181 21.0243 11.6845 20.9289 11.537 20.8489C11.4509 20.8022 10.9425 20.4622 10.8552 20.3845C10.8421 20.3729 10.8466 20.3755 10.8302 20.3646L10.1213 19.8009C10.026 19.7212 9.95462 19.626 9.85765 19.549C9.82622 19.5241 9.80462 19.4981 9.77512 19.4713L9.60322 19.2992C9.5703 19.2657 9.54989 19.2378 9.51965 19.2112C9.39959 19.1048 9.41866 19.1038 9.49373 19.0206L9.66176 18.8444C9.74593 18.7531 9.83962 18.6818 9.92721 18.5945C10.0978 18.4242 10.2876 18.2764 10.469 18.1156L11.0492 17.6769C11.1442 17.6022 11.5457 17.3578 11.672 17.28L11.8873 17.1515C11.9218 17.1335 11.923 17.1311 11.9451 17.1177L12.1068 17.038C12.1347 17.0246 12.1826 16.9982 12.2169 16.9767C12.3615 16.8859 12.518 16.8272 12.6705 16.7548C12.7772 16.7043 12.9176 16.6295 13.0289 16.5969L13.5142 16.4056C13.5397 16.3979 13.5629 16.397 13.5883 16.3882L14.7032 16.0605C14.8354 16.0267 15.0134 16.0076 15.1334 15.9739C15.2233 15.9488 15.3301 15.9429 15.4233 15.9206C15.5188 15.8977 15.6202 15.9029 15.7239 15.8877C15.7679 15.8813 15.8155 15.8662 15.8672 15.8588C16.0254 15.8364 16.1836 15.8448 16.3348 15.8244C16.5499 15.7952 16.7675 15.809 16.9871 15.7985C17.2271 15.7868 18.0477 15.8375 18.2667 15.8814C18.3714 15.9024 18.4797 15.8963 18.5788 15.9152C18.6254 15.9242 18.668 15.9395 18.7197 15.9458C18.7776 15.9529 18.8225 15.9532 18.8707 15.9675L19.3006 16.0532C19.3513 16.0615 19.3762 16.0778 19.4238 16.0892C19.5762 16.1259 19.9766 16.2188 20.103 16.271C20.1506 16.2906 20.1911 16.2935 20.2361 16.3089C20.2905 16.3277 20.2936 16.3364 20.365 16.3538C20.4138 16.3657 20.4271 16.3825 20.4807 16.3965C20.5393 16.4119 20.5567 16.4262 20.6063 16.4426L21.0921 16.6338C21.1303 16.6522 21.1756 16.6718 21.2099 16.6875L22.387 17.2976C22.4208 17.3138 22.4087 17.3059 22.4391 17.3259C22.4716 17.3472 22.5112 17.376 22.5427 17.394L22.855 17.5982C22.878 17.6131 22.8896 17.6243 22.9079 17.6359L23.1507 17.806C23.2808 17.899 23.4188 18.0009 23.5401 18.1035C23.6642 18.2084 23.7895 18.3028 23.9037 18.4166C23.9904 18.503 24.0913 18.5761 24.1802 18.6558C24.211 18.6834 24.2295 18.7087 24.2585 18.7373C24.2789 18.7574 24.2842 18.7594 24.3062 18.7817L24.3925 18.8674C24.4071 18.8826 24.4135 18.8918 24.4303 18.9092L24.5943 19.0717H24.5946ZM8.36401 17.8187C8.28953 17.6676 8.18078 17.5558 8.1063 17.4038L7.86737 16.9787C7.81195 16.8918 7.75729 16.7825 7.71349 16.697C7.66374 16.5996 7.62352 16.4902 7.5681 16.3959C7.55097 16.3667 7.55112 16.3471 7.53518 16.314L7.24441 15.6085C7.23011 15.5564 7.22668 15.5713 7.20925 15.529C7.16993 15.4338 7.1172 15.2227 7.07146 15.1165C7.04569 15.0565 7.04555 15.0014 7.01903 14.9395C6.96764 14.8198 6.86768 14.3823 6.84206 14.2335C6.83149 14.1716 6.80765 14.1252 6.79886 14.0584C6.78844 13.9793 6.77995 13.9428 6.76133 13.8676L6.67806 13.2853C6.65124 13.151 6.60775 12.6296 6.60223 12.4768C6.59166 12.1848 6.60223 11.8922 6.60134 11.6061C6.60074 11.4039 6.67537 10.572 6.71962 10.3893C6.73749 10.3158 6.74151 10.2684 6.75075 10.1936C6.75984 10.119 6.77875 10.0858 6.79082 10.0158C6.80333 9.94202 6.80348 9.89733 6.82761 9.8221L6.90537 9.46489C6.92652 9.36017 6.97777 9.22491 7.00086 9.11438L7.22355 8.44271C7.23964 8.40756 7.23979 8.39832 7.25379 8.35706L7.51031 7.73261C7.52237 7.70461 7.53042 7.69969 7.54546 7.6632L7.99786 6.7873C8.05729 6.66843 8.25958 6.33773 8.33853 6.23376C8.37682 6.18326 8.39633 6.14289 8.43 6.09701C8.46232 6.05307 8.48601 6.01598 8.52086 5.9698L8.80419 5.58846C8.90682 5.43815 9.08349 5.24227 9.2113 5.10254L9.52323 4.76052C9.69111 4.5925 9.85273 4.42655 10.0358 4.26493L10.2155 4.11209C10.3135 4.02138 10.4676 3.88567 10.5776 3.80985C10.6069 3.78959 10.6168 3.78616 10.6445 3.76188C10.786 3.63839 10.9424 3.54663 11.094 3.43238L11.9877 2.88256L13.4382 2.22445C13.5967 2.15175 13.7628 2.11288 13.9221 2.05612C13.9547 2.0445 13.9824 2.04406 14.0158 2.03452C14.052 2.02424 14.0701 2.01158 14.0995 2.00339C14.1668 1.98432 14.2054 1.97553 14.2683 1.95453C14.378 1.91788 14.5184 1.90284 14.6252 1.865L15.7555 1.66495C15.8769 1.63769 16.036 1.64335 16.1634 1.6286C16.5793 1.58049 17.0285 1.57915 17.4547 1.59717C17.6372 1.60492 18.5103 1.68416 18.6531 1.72438C18.7181 1.74271 18.7849 1.74017 18.8533 1.75313L19.5892 1.91073C19.7022 1.94976 19.8163 1.96928 19.9294 2.00443C19.9656 2.0156 19.9757 2.02797 20.0137 2.03691C20.1231 2.06282 20.3338 2.12643 20.4304 2.17023L21.158 2.45072C21.196 2.46502 21.1914 2.47009 21.2263 2.48588C21.3529 2.54323 21.4883 2.59551 21.6097 2.66344C21.6377 2.67923 21.6446 2.68191 21.6787 2.69785C21.718 2.71632 21.7125 2.72153 21.7518 2.73866C21.7941 2.75714 21.7902 2.75669 21.827 2.77829C21.8813 2.81002 21.9197 2.82402 21.9723 2.85068L23.4403 3.8237C23.4741 3.85081 23.4795 3.84515 23.51 3.86839L24.2706 4.55094C24.3536 4.60992 24.4208 4.69483 24.4882 4.76916L24.9143 5.23676C24.9529 5.27936 24.9828 5.3163 25.0208 5.3595C25.0521 5.39525 25.044 5.38438 25.0698 5.42564C25.116 5.49938 25.2478 5.64268 25.3101 5.72327L26.3279 7.37496C26.3807 7.46657 26.4212 7.56965 26.4726 7.67839L26.6707 8.14375C26.7021 8.23015 26.7419 8.29986 26.765 8.38253C26.7773 8.42663 26.7834 8.42126 26.7989 8.46253C26.8308 8.54639 26.8511 8.65096 26.8794 8.71412C26.9199 8.80439 26.992 9.03439 27.0105 9.13196L27.1511 9.65735C27.17 9.72855 27.1652 9.76833 27.1915 9.84623C27.2131 9.91088 27.2096 9.96168 27.2226 10.0335C27.2585 10.2328 27.2999 10.412 27.3145 10.6077C27.3196 10.6757 27.3331 10.7299 27.3447 10.7939C27.3677 10.9176 27.364 11.0781 27.3777 11.2052C27.4225 11.6231 27.4238 12.0707 27.4051 12.4896C27.3893 12.8432 27.3392 13.1685 27.3066 13.5158C27.3 13.5849 27.2787 13.6364 27.2697 13.6956C27.2595 13.7624 27.2601 13.824 27.2446 13.8877C27.1892 14.1162 27.1051 14.6029 27.0313 14.787C26.9848 14.9029 26.9813 15.0171 26.9296 15.132L26.8737 15.2941C26.8622 15.3254 26.8624 15.3534 26.8511 15.3851C26.8389 15.4193 26.8296 15.4214 26.8183 15.4572C26.8065 15.4947 26.8094 15.5044 26.7909 15.5433L26.7259 15.708C26.7134 15.7374 26.7139 15.7569 26.7024 15.7865C26.6899 15.8186 26.6783 15.8256 26.6649 15.8652L26.1338 16.9955C26.1155 17.0277 26.1122 17.0465 26.0975 17.0737L25.8947 17.4208C25.8152 17.5569 25.7181 17.6779 25.6457 17.8203L25.5666 17.8178L25.3994 17.6428C25.2289 17.4703 25.0592 17.3198 24.876 17.1577C24.8438 17.1293 24.8127 17.0999 24.7786 17.0719L24.6668 16.9887C24.5249 16.8799 24.3843 16.7481 24.2402 16.6475C24.2063 16.6239 24.1675 16.586 24.1394 16.5652L23.9694 16.4494C23.8091 16.3215 23.6478 16.2163 23.4582 16.1005C23.3783 16.0517 23.3018 16.0028 23.2237 15.957L22.7388 15.6738C22.6591 15.6221 22.5763 15.5896 22.4893 15.5461C22.3573 15.4803 22.2417 15.408 22.1059 15.356L20.5075 14.7431C20.477 14.7325 20.4737 14.7256 20.442 14.7161L20.1436 14.637C20.0824 14.6147 20.0614 14.612 19.9984 14.6002C19.9418 14.5896 19.9094 14.568 19.8439 14.5573C19.7769 14.5464 19.7621 14.5418 19.6978 14.5211C19.6421 14.5031 19.5911 14.5058 19.5356 14.4883C19.4447 14.4597 19.31 14.4396 19.218 14.4185C19.1645 14.4061 19.1095 14.4051 19.0532 14.3967C18.9972 14.3884 18.9539 14.3704 18.8965 14.3626C18.8393 14.3549 18.7827 14.3529 18.7288 14.3455C18.6689 14.337 18.6239 14.3228 18.5636 14.3154C18.505 14.3082 18.4498 14.3045 18.3958 14.3009C18.2747 14.293 18.1702 14.2661 18.0522 14.2597C17.9262 14.253 17.8095 14.249 17.6854 14.2408C17.4455 14.225 17.2101 14.2123 16.9637 14.2119C16.8161 14.2116 16.0332 14.2473 15.8672 14.2685C15.7527 14.2831 15.6482 14.2986 15.5307 14.3076C15.3074 14.3251 15.0762 14.3808 14.857 14.4076C14.7043 14.4262 14.5386 14.4868 14.3861 14.5049C14.3201 14.5126 14.2991 14.5278 14.2406 14.543C14.1349 14.5704 14.0182 14.5877 13.9243 14.6173L13.6326 14.7033C13.4816 14.7359 13.3361 14.7877 13.1989 14.8426C13.14 14.8661 13.1208 14.8552 13.0585 14.8858C12.968 14.9302 12.8661 14.9486 12.7739 14.9909L12.5634 15.0675C12.4949 15.0955 12.4374 15.1336 12.3654 15.1546C12.2991 15.174 12.2945 15.1892 12.2346 15.2086C12.1619 15.232 12.1019 15.268 12.038 15.2981L11.5783 15.5141L10.3769 16.2145C10.3436 16.2358 10.3035 16.2631 10.2673 16.2879C10.0717 16.4217 9.89265 16.5437 9.70854 16.6921L9.49716 16.8592C9.46171 16.8869 9.43281 16.9063 9.39363 16.9385L9.08647 17.2039C8.92038 17.3544 8.74818 17.5006 8.59043 17.6591C8.54649 17.7032 8.49867 17.7659 8.44832 17.8033C8.41495 17.8281 8.41406 17.8202 8.36371 17.8196L8.36401 17.8187ZM5.0003 11.7318C5.0003 12.1876 5.00372 12.4782 5.03977 12.9341C5.04841 13.044 5.0499 13.1545 5.06212 13.2667C5.07418 13.3792 5.09519 13.466 5.10293 13.5879C5.11023 13.7045 5.14226 13.7831 5.15239 13.8973C5.16475 14.0353 5.20095 14.2284 5.2367 14.3611C5.25085 14.4137 5.2504 14.4648 5.26128 14.519C5.27305 14.578 5.29018 14.6045 5.29867 14.6655C5.31535 14.7836 5.38641 14.9912 5.40339 15.1L5.52524 15.5168C5.54714 15.5708 5.54758 15.6145 5.56546 15.6598L5.70459 16.0593C5.71844 16.1162 5.73632 16.1338 5.75464 16.1926C5.79441 16.3209 5.90435 16.5762 5.96229 16.718L6.19021 17.212C6.23266 17.2936 6.27526 17.3775 6.30967 17.46L6.69385 18.1522C6.78695 18.2992 6.87603 18.4553 6.9806 18.5986L7.12241 18.8237C7.16814 18.8973 7.21804 18.9523 7.27331 19.0282C7.32321 19.0968 7.36626 19.18 7.42316 19.2445C7.44878 19.2736 7.47977 19.3083 7.50107 19.3388C7.60951 19.4941 7.7342 19.6488 7.86707 19.786C7.94006 19.8615 7.99845 19.9517 8.07696 20.0346L8.61203 20.5885C8.76903 20.7403 9.01884 20.9989 9.18166 21.1069L9.47437 21.3528C9.51101 21.3833 9.53559 21.4094 9.57388 21.4365L10.9729 22.3869L11.3911 22.6102C11.424 22.6266 11.4109 22.6261 11.4489 22.644L11.6287 22.7395C11.6522 22.7507 11.6686 22.7496 11.6961 22.7632C11.8651 22.8466 12.1502 23.0026 12.3134 23.0501L12.7591 23.2358C12.7952 23.2531 12.7999 23.2446 12.833 23.254C12.872 23.265 12.8592 23.2674 12.8856 23.281L13.2264 23.3991C13.297 23.4117 13.3061 23.4329 13.3597 23.4457C13.39 23.453 13.4132 23.45 13.4399 23.4603C13.4697 23.4718 13.4612 23.4794 13.4999 23.491C13.5754 23.5136 13.5662 23.4965 13.6441 23.5315C13.6906 23.5524 13.7467 23.5436 13.7943 23.5634L13.9355 23.6041C14.0013 23.6167 13.998 23.6401 14.066 23.6483C14.1475 23.658 14.1448 23.6502 14.2161 23.6808C14.27 23.7039 14.3167 23.696 14.3705 23.7109C14.4157 23.7234 14.4527 23.7451 14.5124 23.7493C14.6012 23.7557 14.5911 23.7567 14.6648 23.7828C14.7192 23.802 14.7726 23.795 14.8297 23.802C14.8909 23.8096 14.9189 23.8321 14.972 23.8421C15.0266 23.8524 15.085 23.8464 15.1428 23.8537C15.2744 23.8703 15.2173 23.8874 15.4525 23.9011C15.568 23.9078 15.649 23.9426 15.7725 23.9483C16.0126 23.9593 16.2687 24 16.4488 24H17.5602C17.7864 24 17.9889 23.9555 18.2248 23.9496C18.3546 23.9465 18.4194 23.9129 18.5374 23.9024C18.5972 23.8971 18.6515 23.9024 18.7122 23.8932C18.7694 23.8846 18.8012 23.8638 18.8557 23.8558C18.9101 23.8478 18.9683 23.8527 19.0169 23.8454C19.0775 23.8363 19.0984 23.8142 19.1606 23.8049C19.2059 23.798 19.2762 23.8005 19.3248 23.7856C19.4475 23.748 19.4986 23.7521 19.6187 23.7124C19.6687 23.6957 19.7218 23.7061 19.7781 23.6879C19.8378 23.6687 19.8365 23.6565 19.9208 23.6486C20.0052 23.6406 19.9939 23.6184 20.0606 23.6048C20.1307 23.5905 20.1375 23.6048 20.2007 23.5728C20.262 23.5416 20.2856 23.5604 20.3462 23.5352L20.7612 23.4013C20.7973 23.3954 20.8025 23.3994 20.8348 23.383C20.867 23.3668 20.8503 23.3648 20.8972 23.3532C20.9784 23.3331 20.9781 23.3164 21.0332 23.3041L21.2322 23.241C21.2677 23.2275 21.2501 23.2242 21.2917 23.209C21.3146 23.2007 21.3411 23.199 21.3644 23.1895C21.3913 23.1785 21.3958 23.168 21.4239 23.1576C21.452 23.1472 21.468 23.1493 21.4946 23.1371C21.5272 23.1219 21.5121 23.1196 21.5556 23.1056C21.6471 23.0764 21.7551 23.0192 21.815 22.9999L22.0031 22.912C22.0283 22.9004 22.0475 22.8996 22.0715 22.889L22.6088 22.6126C22.6314 22.599 22.6466 22.5996 22.6734 22.5858L23.8014 21.8917L24.4287 21.4298C24.5669 21.3218 24.6983 21.222 24.8301 21.0984C24.8407 21.0885 24.8601 21.072 24.8739 21.0616L25.4002 20.58C25.5809 20.3988 25.7715 20.2177 25.9332 20.0247C25.9683 19.9825 25.9719 19.9631 26.0154 19.9228C26.1075 19.8373 26.1879 19.72 26.2704 19.6281C26.3862 19.4993 26.4811 19.3622 26.5938 19.2298C26.6366 19.1796 26.639 19.1771 26.6684 19.1209C26.7082 19.0448 26.77 18.9718 26.8119 18.8979L27.2466 18.2437C27.2604 18.2189 27.2601 18.2091 27.2768 18.1824L27.5426 17.7256C27.6428 17.5495 27.7323 17.3597 27.8181 17.1771L28.2028 16.2903C28.2463 16.1528 28.3142 16.0161 28.3513 15.8871L28.4393 15.6212C28.4591 15.5731 28.4582 15.5264 28.4788 15.4773C28.5017 15.4229 28.4999 15.3918 28.5186 15.3332L28.7413 14.4676C28.7544 14.4189 28.7554 14.3581 28.7652 14.3085C28.7761 14.2543 28.7938 14.2215 28.8029 14.1624C28.811 14.1112 28.8122 14.0529 28.8235 14.0003C28.8495 13.8803 28.854 13.7723 28.8734 13.6838C28.9508 13.3293 28.9996 12.3469 28.9996 11.9488C28.9996 11.702 28.9747 11.4808 28.9651 11.2483C28.9602 11.1285 28.9572 11.0093 28.9467 10.8954L28.8446 10.0832C28.8174 9.9374 28.7739 9.76192 28.7579 9.6213C28.75 9.55084 28.7371 9.52716 28.7223 9.47115L28.5774 8.87187C28.5571 8.82048 28.5589 8.77535 28.5428 8.72262L28.3435 8.0867C28.2804 7.94086 28.2862 7.92537 28.2468 7.81633C28.237 7.78922 28.2263 7.77879 28.2171 7.75451C28.2077 7.73008 28.2065 7.70893 28.1961 7.6839C28.1829 7.65232 28.1774 7.65798 28.1649 7.62268C28.1024 7.44601 28.0203 7.27128 27.9474 7.09476C27.8797 6.93075 27.7836 6.76198 27.7098 6.6002C27.6318 6.4292 27.5299 6.27115 27.4532 6.11101C27.364 5.92481 27.1965 5.71209 27.1089 5.53945L26.6549 4.88148C26.6287 4.84692 26.5986 4.8149 26.5734 4.78004L25.9068 3.96849L25.5033 3.53561C25.4164 3.43268 25.0229 3.08619 24.887 2.96032L23.8987 2.18423L23.1769 1.7141C23.134 1.68506 23.0962 1.66137 23.0548 1.64111C22.9384 1.58421 22.8246 1.49826 22.7038 1.44255L22.3988 1.28897C22.1953 1.19304 21.9808 1.07789 21.7679 0.99149C21.7369 0.978978 21.7371 0.973466 21.7083 0.960357L21.4475 0.85519C21.4217 0.845955 21.4012 0.844018 21.3772 0.832399L20.9686 0.681203C20.9386 0.667647 20.9404 0.662434 20.9036 0.652602L19.9077 0.353338C19.797 0.331142 19.7164 0.308947 19.6033 0.289582C19.5563 0.281538 19.514 0.260088 19.4597 0.252193C19.3957 0.242957 19.3637 0.243106 19.3033 0.224635C19.108 0.164603 18.8789 0.158049 18.6677 0.115743L18.0063 0.0457313C17.775 0.0354529 17.541 0 17.3075 0L16.356 0.0137045L15.6846 0.0709059C15.5677 0.0941439 15.4701 0.0923564 15.3533 0.107253C15.2952 0.114701 15.2586 0.129448 15.2008 0.138386C15.1495 0.146281 15.0917 0.147323 15.0387 0.157602C14.9875 0.167582 14.9445 0.185458 14.8891 0.191714C14.8337 0.19797 14.7829 0.198566 14.7265 0.213462C14.6265 0.239829 14.5286 0.255768 14.4315 0.283772C14.3824 0.297924 14.3207 0.296434 14.2723 0.309245C14.2196 0.323247 14.1954 0.336803 14.1299 0.348869C14.0618 0.361382 14.053 0.379257 13.9875 0.389982C13.8403 0.414114 13.7025 0.464463 13.5524 0.504832L12.6651 0.80931C12.6376 0.820333 12.6343 0.827334 12.6029 0.839102L12.4718 0.891537C12.4463 0.900326 12.4255 0.901815 12.4012 0.911945L11.9565 1.10947C11.8581 1.1485 11.7551 1.2124 11.6571 1.2562C11.6282 1.26916 11.63 1.27497 11.5987 1.28971L10.5408 1.88184L10.1012 2.17574C10.0611 2.20568 10.0355 2.22787 9.99514 2.2529C9.95998 2.27465 9.92632 2.30816 9.8931 2.33468C9.78466 2.42093 9.65908 2.49869 9.55242 2.58941L9.27104 2.8124C9.20549 2.86528 9.15231 2.93202 9.07888 2.98684C8.92827 3.09945 8.78572 3.24946 8.64733 3.3801C8.42344 3.59132 8.17915 3.83964 7.98594 4.0823L7.91876 4.15291C7.91727 4.1547 7.91489 4.15708 7.9134 4.15887C7.91191 4.16066 7.90982 4.16319 7.90833 4.16498L7.81002 4.27342C7.74999 4.35073 7.71081 4.40317 7.64586 4.47586L7.02558 5.32226C7.00994 5.3446 7.00711 5.35801 6.99311 5.3814L6.88109 5.54421C6.76833 5.70658 6.67895 5.88906 6.5717 6.05947C6.55889 6.08003 6.55278 6.09642 6.53878 6.11861C6.42899 6.29319 6.30997 6.57473 6.22268 6.71893L5.99119 7.22152C5.9261 7.35797 5.83925 7.6197 5.77847 7.74155C5.73736 7.82393 5.72306 7.92641 5.68046 8.01147C5.63354 8.10502 5.46774 8.68776 5.4159 8.84595L5.2732 9.43659C5.24579 9.52328 5.11276 10.2912 5.10561 10.3676C5.09414 10.4895 5.07657 10.5775 5.06376 10.6908C5.03739 10.9235 5 11.5192 5 11.7312L5.0003 11.7318Z" fill="#828282"/>
<path fill-rule="evenodd" clip-rule="evenodd" d="M16.9105 4.79924C17.1165 4.76974 17.4294 4.81711 17.6364 4.85152C17.6945 4.8612 17.7293 4.88161 17.7986 4.89293L18.1826 5.01315C18.2969 5.06767 18.4762 5.14021 18.5846 5.20784C18.6137 5.22586 18.6088 5.22884 18.6481 5.24761C18.7348 5.28873 18.8254 5.36738 18.8882 5.4076C19.0309 5.49876 19.3083 5.76153 19.41 5.88308C19.4476 5.92792 19.4722 5.94758 19.5061 5.99302L19.5861 6.10816C19.7278 6.28573 19.7098 6.29288 19.7874 6.41071L19.8912 6.60525C19.922 6.66215 19.9944 6.82303 20.0113 6.88679C20.0361 6.98108 20.1239 7.20661 20.1504 7.35423C20.1601 7.4083 20.1629 7.47489 20.1718 7.52837C20.2107 7.75985 20.1975 7.65811 20.2104 7.89422C20.2235 8.13315 20.1908 8.41514 20.1483 8.63709L19.8939 9.39113L19.7107 9.71319C19.6033 9.92308 19.1952 10.3734 19.0013 10.5048C18.8909 10.5794 18.8051 10.6652 18.6503 10.7495C18.6179 10.7672 18.6107 10.7744 18.5855 10.7888C18.4412 10.8714 18.0962 11.0254 17.9501 11.0586L17.2969 11.1964C17.237 11.2013 17.1758 11.2001 17.1126 11.2037C16.9891 11.2107 16.8421 11.205 16.7223 11.1966C16.647 11.1912 16.6137 11.1809 16.5427 11.1671C16.4864 11.156 16.4284 11.1572 16.3703 11.1464C16.2065 11.1157 15.7658 10.97 15.6178 10.8904C15.4925 10.8233 15.3718 10.7713 15.2394 10.6724C15.1944 10.6387 15.1521 10.6169 15.1135 10.5916C15.083 10.5715 15.0404 10.5337 15.0066 10.5042C14.9132 10.4225 14.9002 10.4285 14.7927 10.3172C14.7745 10.2985 14.7626 10.2915 14.7385 10.2681L14.4158 9.89269C14.2439 9.64109 14.2482 9.63677 14.1152 9.39024L13.9005 8.80512C13.8886 8.722 13.8707 8.70219 13.8585 8.63739L13.7979 8.10068C13.7769 7.61044 13.8937 7.12766 14.0525 6.74781C14.1088 6.61329 14.1906 6.47461 14.2558 6.34412C14.2981 6.25951 14.4428 6.0745 14.5031 5.99525C14.6041 5.86267 14.7726 5.70195 14.8959 5.58576C14.9908 5.49623 15.2483 5.31018 15.3602 5.24776L15.6193 5.10654L16.372 4.85286C16.4308 4.84333 16.4873 4.84035 16.5434 4.83082C16.8017 4.78672 16.813 4.81339 16.9105 4.79939V4.79924ZM17.17 3.20326C16.8151 3.20326 16.6453 3.20773 16.2793 3.25689L15.9123 3.33613C15.868 3.35014 15.8324 3.34865 15.7852 3.35773L15.5592 3.42953C15.5162 3.448 15.4874 3.44666 15.4426 3.46156L15.2308 3.54796C15.1675 3.56717 15.1748 3.56851 15.1238 3.59026C14.8847 3.692 14.6655 3.81117 14.4462 3.94479L14.1395 4.15319C14.1268 4.16198 14.125 4.16362 14.12 4.16809C13.9701 4.29932 13.8594 4.36874 13.6941 4.53259C13.5275 4.69764 13.3664 4.87476 13.2143 5.06171L13.1422 5.16002C13.0503 5.28113 12.9158 5.47895 12.8481 5.61123L12.7674 5.74857C12.7567 5.76928 12.754 5.78268 12.7433 5.80384L12.4711 6.4259L12.3659 6.76941C12.3564 6.81082 12.3551 6.85521 12.3445 6.89558C12.3339 6.9358 12.3187 6.95605 12.3102 7.00819C12.2953 7.09936 12.2766 7.18158 12.2642 7.26217C12.2514 7.34648 12.2474 7.44137 12.2344 7.52851C12.2052 7.72514 12.2073 7.8893 12.2065 8.10008L12.2676 8.77384C12.274 8.81242 12.2898 8.84966 12.2979 8.89137C12.3049 8.92756 12.3069 8.9794 12.3181 9.0232C12.3287 9.06521 12.3403 9.08815 12.3492 9.13894C12.3668 9.23904 12.389 9.27837 12.41 9.37773L12.5652 9.81776C12.6232 9.97685 12.7637 10.21 12.8061 10.3096C12.8237 10.351 12.8353 10.3634 12.858 10.4065C12.9177 10.5197 13.0124 10.6729 13.0902 10.7708C13.1802 10.884 13.2496 11.002 13.3489 11.1076L13.563 11.3403C13.5913 11.368 13.6068 11.3823 13.6388 11.4136C13.7857 11.5566 13.942 11.7054 14.1089 11.8256C14.3123 11.9719 14.5298 12.1043 14.7489 12.228C14.7812 12.2461 14.8183 12.2645 14.8464 12.28C14.9823 12.3549 15.345 12.5119 15.4758 12.5448C15.5382 12.5604 15.5358 12.5616 15.5859 12.5822C15.6337 12.6017 15.662 12.5959 15.7088 12.6093C15.7501 12.6211 15.7751 12.6372 15.8207 12.6458C15.8801 12.6571 15.8843 12.6583 15.9383 12.6775C16.0069 12.7018 16.1053 12.7014 16.1883 12.7253L16.7229 12.7906C17.0039 12.8015 17.2814 12.7946 17.5541 12.7587C17.6988 12.7396 17.9385 12.7213 18.0682 12.6769C18.1792 12.6391 18.3185 12.6226 18.423 12.5843C18.4752 12.5652 18.4705 12.559 18.534 12.5457L18.8584 12.4255C18.9864 12.358 19.123 12.3126 19.2548 12.2362C19.2709 12.2268 19.2819 12.2174 19.2967 12.209L19.539 12.0738C19.6004 12.0362 19.6529 11.9896 19.7165 11.9531C19.8471 11.8779 19.9405 11.782 20.0582 11.6988L20.7196 11.0311C20.8387 10.8721 20.9542 10.7294 21.0588 10.5566C21.0769 10.5267 21.0765 10.5352 21.0927 10.51C21.1656 10.3981 21.3105 10.1373 21.3527 10.0251L21.5999 9.37892C21.612 9.3174 21.6092 9.31799 21.6326 9.26183L21.7555 8.63888C21.7684 8.45431 21.8031 8.2915 21.8025 8.08846C21.8019 7.90718 21.8051 7.69073 21.7744 7.52807C21.744 7.36644 21.7742 7.38 21.7175 7.14017C21.6951 7.04618 21.6997 6.99896 21.6668 6.89141C21.6326 6.77894 21.6136 6.65009 21.5698 6.54194L21.4975 6.31656C21.4651 6.19635 21.2815 5.82901 21.214 5.70582L20.9943 5.33088C20.9601 5.27651 20.9059 5.2199 20.8659 5.16002C20.7214 4.94447 20.5052 4.70509 20.3162 4.52976C20.211 4.43234 20.1157 4.33507 19.9996 4.25046L19.9126 4.1882C19.8273 4.12653 19.7473 4.04862 19.6532 4.00095C19.5773 3.96267 19.506 3.89608 19.43 3.85705C19.4096 3.84663 19.399 3.84514 19.3759 3.83143C19.3455 3.81356 19.3159 3.80075 19.28 3.77825C19.1544 3.6996 18.6955 3.50208 18.5559 3.45798L18.325 3.39408C18.2806 3.3835 18.2562 3.36593 18.2118 3.3558C18.081 3.3263 17.8375 3.26195 17.7196 3.25406C17.5321 3.24139 17.3596 3.20251 17.17 3.20251V3.20326Z" fill="#828282"/>
<path d="M2.11523 36.6602V40H0.990234V31.4688H4.13672C5.07031 31.4688 5.80078 31.707 6.32812 32.1836C6.85938 32.6602 7.125 33.291 7.125 34.0762C7.125 34.9043 6.86523 35.543 6.3457 35.9922C5.83008 36.4375 5.08984 36.6602 4.125 36.6602H2.11523ZM2.11523 35.7402H4.13672C4.73828 35.7402 5.19922 35.5996 5.51953 35.3184C5.83984 35.0332 6 34.623 6 34.0879C6 33.5801 5.83984 33.1738 5.51953 32.8691C5.19922 32.5645 4.75977 32.4062 4.20117 32.3945H2.11523V35.7402ZM11.2151 34.6328C11.051 34.6055 10.8733 34.5918 10.6819 34.5918C9.97094 34.5918 9.48852 34.8945 9.23461 35.5V40H8.15063V33.6602H9.20531L9.22289 34.3926C9.57836 33.8262 10.0823 33.543 10.7346 33.543C10.9455 33.543 11.1057 33.5703 11.2151 33.625V34.6328ZM11.5727 36.7715C11.5727 36.1504 11.6938 35.5918 11.936 35.0957C12.1821 34.5996 12.522 34.2168 12.9555 33.9473C13.393 33.6777 13.8911 33.543 14.4497 33.543C15.313 33.543 16.0102 33.8418 16.5415 34.4395C17.0766 35.0371 17.3442 35.832 17.3442 36.8242V36.9004C17.3442 37.5176 17.2251 38.0723 16.9868 38.5645C16.7524 39.0527 16.4145 39.4336 15.9731 39.707C15.5356 39.9805 15.0317 40.1172 14.4614 40.1172C13.602 40.1172 12.9048 39.8184 12.3696 39.2207C11.8384 38.623 11.5727 37.832 11.5727 36.8477V36.7715ZM12.6626 36.9004C12.6626 37.6035 12.8247 38.168 13.1489 38.5938C13.477 39.0195 13.9145 39.2324 14.4614 39.2324C15.0122 39.2324 15.4497 39.0176 15.7739 38.5879C16.0981 38.1543 16.2602 37.5488 16.2602 36.7715C16.2602 36.0762 16.0942 35.5137 15.7622 35.084C15.4341 34.6504 14.9966 34.4336 14.4497 34.4336C13.9145 34.4336 13.4829 34.6465 13.1548 35.0723C12.8266 35.498 12.6626 36.1074 12.6626 36.9004ZM18.8269 40V34.498H17.8249V33.6602H18.8269V33.1211C18.8269 32.4141 19.028 31.8633 19.4304 31.4688C19.8366 31.0742 20.4089 30.877 21.1472 30.877C21.5847 30.877 22.1374 30.9961 22.8054 31.2344L22.6238 32.1484C22.1355 31.9531 21.6706 31.8555 21.2292 31.8555C20.7644 31.8555 20.4284 31.9609 20.2214 32.1719C20.0183 32.3789 19.9167 32.6914 19.9167 33.1094V33.6602H21.2116V34.498H19.9167V40H18.8269ZM23.3445 40H22.2546V33.6602H23.3445V40ZM26.0459 40H24.9619V31H26.0459V40ZM30.177 40.1172C29.3176 40.1172 28.6184 39.8359 28.0793 39.2734C27.5402 38.707 27.2707 37.9512 27.2707 37.0059V36.8066C27.2707 36.1777 27.3898 35.6172 27.6281 35.125C27.8703 34.6289 28.2062 34.2422 28.6359 33.9648C29.0695 33.6836 29.5383 33.543 30.0422 33.543C30.8664 33.543 31.507 33.8145 31.9641 34.3574C32.4211 34.9004 32.6496 35.6777 32.6496 36.6895V37.1406H28.3547C28.3703 37.7656 28.552 38.2715 28.8996 38.6582C29.2512 39.041 29.6965 39.2324 30.2355 39.2324C30.6184 39.2324 30.9426 39.1543 31.2082 38.998C31.4738 38.8418 31.7062 38.6348 31.9055 38.377L32.5676 38.8926C32.0363 39.709 31.2395 40.1172 30.177 40.1172ZM30.0422 34.4336C29.6047 34.4336 29.2375 34.5938 28.9406 34.9141C28.6437 35.2305 28.4602 35.6758 28.3898 36.25H31.5656V36.168C31.5344 35.6172 31.3859 35.1914 31.1203 34.8906C30.8547 34.5859 30.4953 34.4336 30.0422 34.4336Z" fill="#828282"/>
</g>
</svg>
