<svg width="26" height="20" viewBox="0 0 26 20" fill="none" xmlns="http://www.w3.org/2000/svg">
<path d="M2.47388 10.3186C2.47388 9.83267 2.86783 9.43872 3.35379 9.43872H12.153C12.6389 9.43872 13.0329 9.83267 13.0329 10.3186C13.0329 10.8046 12.6389 11.1986 12.153 11.1986H3.3538C2.86783 11.1986 2.47388 10.8046 2.47388 10.3186Z" fill="white"/>
<path d="M0.714355 5.91922C0.714355 5.43326 1.10831 5.03931 1.59427 5.03931H8.63361C9.11957 5.03931 9.51353 5.43326 9.51353 5.91922C9.51353 6.40519 9.11957 6.79914 8.63361 6.79914H1.59427C1.10831 6.79914 0.714355 6.40519 0.714355 5.91922Z" fill="white"/>
<path d="M25.2816 9.97229L22.6419 3.81287C22.5741 3.65456 22.4614 3.51963 22.3176 3.42483C22.1739 3.33003 22.0054 3.27955 21.8332 3.27964H19.1935V1.51981C19.1935 1.28644 19.1008 1.06263 18.9358 0.897614C18.7708 0.732598 18.5469 0.639893 18.3136 0.639893H5.11482C4.62885 0.639893 4.2349 1.03384 4.2349 1.51981V1.51981C4.2349 2.00577 4.62885 2.39973 5.11482 2.39973H17.4337V13.448C17.0327 13.6808 16.6818 13.9907 16.4012 14.3598C16.1206 14.7289 15.9159 15.1499 15.7988 15.5985H10.2694C10.0552 14.769 9.54588 14.0461 8.83686 13.5653C8.12784 13.0845 7.26781 12.8788 6.41797 12.9868C5.56814 13.0947 4.78684 13.5089 4.22054 14.1517C3.65423 14.7945 3.3418 15.6217 3.3418 16.4784C3.3418 17.3351 3.65423 18.1623 4.22054 18.8051C4.78684 19.4479 5.56814 19.8621 6.41797 19.97C7.26781 20.078 8.12784 19.8723 8.83686 19.3915C9.54588 18.9107 10.0552 18.1878 10.2694 17.3583H15.7988C15.9902 18.1135 16.4279 18.7833 17.0428 19.2617C17.6576 19.7402 18.4144 19.9999 19.1935 19.9999C19.9725 19.9999 20.7294 19.7402 21.3442 19.2617C21.959 18.7833 22.3968 18.1135 22.5882 17.3583H24.473C24.7064 17.3583 24.9302 17.2656 25.0952 17.1006C25.2602 16.9356 25.3529 16.7118 25.3529 16.4784V10.319C25.353 10.1998 25.3287 10.0818 25.2816 9.97229ZM6.87465 18.2382C6.52659 18.2382 6.18634 18.135 5.89694 17.9416C5.60753 17.7483 5.38197 17.4734 5.24877 17.1519C5.11558 16.8303 5.08073 16.4764 5.14863 16.1351C5.21653 15.7937 5.38414 15.4801 5.63026 15.234C5.87638 14.9879 6.18995 14.8203 6.53132 14.7524C6.8727 14.6845 7.22654 14.7193 7.54811 14.8525C7.86968 14.9857 8.14452 15.2113 8.3379 15.5007C8.53127 15.7901 8.63448 16.1303 8.63448 16.4784C8.63402 16.945 8.44846 17.3923 8.11853 17.7223C7.78859 18.0522 7.34124 18.2378 6.87465 18.2382ZM19.1935 5.03948H21.2525L23.139 9.43906H19.1935V5.03948ZM19.1935 18.2382C18.8454 18.2382 18.5052 18.135 18.2158 17.9416C17.9264 17.7483 17.7008 17.4734 17.5676 17.1519C17.4344 16.8303 17.3996 16.4764 17.4675 16.1351C17.5354 15.7937 17.703 15.4801 17.9491 15.234C18.1952 14.9879 18.5088 14.8203 18.8502 14.7524C19.1915 14.6845 19.5454 14.7193 19.8669 14.8525C20.1885 14.9857 20.4634 15.2113 20.6567 15.5007C20.8501 15.7901 20.9533 16.1303 20.9533 16.4784C20.9529 16.945 20.7673 17.3923 20.4374 17.7223C20.1074 18.0522 19.6601 18.2378 19.1935 18.2382ZM23.5931 15.5985H22.5882C22.3944 14.8448 21.9559 14.1767 21.3416 13.699C20.7272 13.2212 19.9717 12.9609 19.1935 12.9587V11.1989H23.5931V15.5985Z" fill="white"/>
</svg>
